<svg version="1.1" xmlns="http://www.w3.org/2000/svg" xmlns:xlink="http://www.w3.org/1999/xlink" width="354.29218" height="86.21498" viewBox="0,0,354.29218,86.21498"><g transform="translate(-1.60164,-3.71094)"><g stroke-miterlimit="10"><g stroke="#000000" stroke-width="0" stroke-linecap="round"><path d="M14.40472,40.07001l1.18643,-14.07876l0.68012,-9.30105l3.59096,0.02066l0.0791,-2.57056l7.47441,-8.3049l7.59305,8.42355v1.81917l3.88879,0.15818l0.47456,0.59321l7.90942,-0.19775l0.47456,-0.71184l2.49148,-0.0791l8.95083,-10.54853l10.6909,10.26906l1.14687,-0.03954l1.85871,25.61334l-23.37234,0.23728l-0.19773,-1.89826l-10.62499,-0.43502l-2.45192,2.13554l-22.08046,-0.03954z" fill="#b9b9b5"/><path d="M20.05997,26.04134l-6.36709,0.03954l-0.39547,-0.75139l6.96029,0.07908z" fill="#57504b"/><path d="M19.82269,16.76095l-4.74138,-0.08942l-0.63275,-1.08487l5.57188,0.02744l-0.23729,0.90958" fill="#57504b"/><path d="M18.51763,14.03221l8.87172,-9.37266l7.92261,8.77946l1.02822,2.0169l3.63834,-0.11865l0.23728,0.5141l6.44619,-0.15818l0.43502,-0.87003l2.57056,0.0791l9.49131,-11.07318l10.79636,10.67772h3.32195l-0.72503,1.08094l-6.723,0.11865l-0.11865,-0.98868l3.24286,-0.15818l-9.78132,-9.06947l-8.21261,9.38585l2.13554,-0.11865l-0.39547,1.18641l-4.94339,-0.11865l-0.09228,0.31638l0.03955,-0.31638l-0.39548,0.90958l-7.90942,0.11865l-0.59321,-0.59321l-3.83607,-0.07908v-1.89826l-7.55349,-8.42355l-8.3049,9.01673z" fill="#57504b"/><path d="M32.17248,25.09042h19.44938l-0.98005,2.31012l21.17613,-0.49003l0.10501,1.01505l-22.37787,0.14001l0.35002,-2.13512l-17.15093,-0.10501z" fill="#57504b"/><path d="M34.45092,28.68351l4.00351,0.10535l0.9482,0.31606l-0.05268,-0.86918l8.42847,0.18437l1.73838,-0.42142l22.37056,-0.05268l1.01843,13.26606l-23.48558,0.18437l-0.10535,-1.92275l-10.76386,-0.42142l-2.34417,2.15979l-22.16863,-0.02634l1.26428,-11.84374l0.10537,-0.71116l3.7138,0.05268l-0.48289,7.19054l15.22391,-0.15804l0.18437,-7.00617z" fill="#8a8083"/><path d="M33.86267,35.716l-15.35561,0.26339l0.42143,-6.29501l15.17124,0.05268z" fill="#ff8b00"/><path d="M30.6581,17.97232l-0.23706,5.1361l-6.87446,0.13169l0.39508,-5.32047l6.87446,-0.05268z" fill="#ff0000"/><path d="M53.29204,17.43678l12.27395,0.07902l0.36875,5.32047h-12.32662z" fill="#00ff0b"/><path d="M50.28063,41.37887l-0.10535,-9.21864l18.01585,-0.15804l0.55312,9.324z" fill="#afaba6"/><path d="M67.1639,33.87228l-16.27748,-0.02634l0.05268,-0.92187l15.90873,-0.23704z" fill="#ffe100"/><path d="M47.04093,39.40346l-6.95348,-0.21071l-0.02634,-9.11328l7.0325,-0.05268z" fill="#49453f"/><path d="M46.2771,35.34726l-0.97454,0.07902l-0.05268,-4.84636l1.00088,-0.07902z" fill="#0043ff"/><path d="M44.69677,38.66596l-2.89729,0.07902v-8.03338l2.87095,-0.07902z" fill="#4f352c"/><path d="M41.19369,35.47893h-0.84285l0.15802,-4.82004l0.65847,0.02634z" fill="#0043ff"/><path d="M44.58835,18.99217l-0.15235,3.93158l-3.05507,0.03981l0.06784,-3.89493l2.5353,0.03502z" fill="#a700ff"/></g><g stroke="#000000" stroke-width="0" stroke-linecap="round"><path d="M10.66097,81.91398l-0.5246,-20.39513l17.05213,-13.58517l6.94621,4.24879l0.30255,-0.28609l11.93052,7.13963l0.00696,1.349l11.21581,-0.89909l-0.26159,0.4924l0.39702,8.39446l12.84345,-0.84547l0.48018,13.64945l-34.81521,0.72673l-13.04846,0.36745l-0.28927,-0.40623l-12.16499,0.40941z" fill="#5e6064"/><path d="M26.07215,80.9938l-0.0507,-2.43685l-0.48797,-0.00935l-0.31852,-16.66888l0.95376,-1.49243l1.31358,-0.89392l1.74873,-0.22457l1.6648,0.21693l0.69863,0.51492l0.88866,1.14305l0.19454,0.7743l0.11209,18.67475z" fill="#313334"/><path d="M10.49546,79.09861l15.68717,-0.62172l0.00222,2.31782l6.63814,-0.13534l-0.23992,-2.17211l3.57831,-0.07565l0.03841,3.49296l-13.04001,0.33257l-0.3249,-0.43972l-12.30111,0.4828z" fill="#aca8a3"/><path d="M26.15593,80.94889l-0.07392,-7.6817l6.42781,-0.04885l0.30969,7.40994z" fill="#251419"/><path d="M27.50813,80.81226l-0.23297,-7.5615l3.81078,-0.02247l0.32742,7.54505z" fill="#391d22"/><path d="M31.1095,73.55311l0.77241,-0.0238l0.19112,3.56144l-0.8533,0.03986z" fill="#ffe100"/><path d="M27.34328,77.2229l-0.84101,-0.00122l0.01381,-3.51349l0.75844,-0.03693z" fill="#cd00ff"/><path d="M14.37431,78.92463l-0.33307,-8.1688l7.47519,-0.39309l0.32744,8.42669z" fill="#ff8b00"/><path d="M21.40913,66.88012l-7.59505,0.4646l-0.26126,-5.83802l7.66448,-0.41247l0.15972,5.62412z" fill="#ff0000"/><path d="M21.42028,59.31787l7.19666,-5.47098l0.9242,0.50052l3.63514,-2.64169l-5.98912,-3.76258l-17.70779,14.30622l-1.02221,-1.04006l18.69158,-14.51288l6.96858,4.29532l0.26268,-0.27937l13.34254,7.78154l-0.33916,0.87853l11.68926,-0.7535l-0.08336,0.8164l-12.61678,1.02625l-0.05781,-1.43599l-11.85834,-7.15584l-3.8904,2.94116l5.78646,3.34834l-0.95541,1.12812l-6.70882,-4.22872l-6.60418,5.33066z" fill="#0d121f"/><path d="M35.024,68.75293l37.1287,-2.0663l-0.00414,0.74614l-37.0791,1.91558z" fill="#0d121f"/><path d="M35.04048,68.84736l-0.00983,-0.75928l11.40792,-0.41931l-0.10032,-1.0549l11.33475,-0.59339l0.03572,1.59945z" fill="#616161"/><path d="M35.57573,65.96887l-0.26938,-5.66144l7.76143,-0.34764l0.12701,5.88284l-7.66658,0.34473z" fill="#00ff0b"/><path d="M48.1254,60.56355l6.27249,-0.24752l0.18241,5.04016l-6.36776,0.2369z" fill="#0043ff"/><path d="M36.23981,82.03272l-0.2868,-8.0373l19.50953,-0.6011l0.17485,8.21695l-19.47883,0.32608z" fill="#363637"/><path d="M57.02014,81.56865l-0.13876,-8.31594l9.91551,-0.32509l0.35631,8.38754z" fill="#363637"/><path d="M31.66253,68.97831l-6.26227,0.13538l-0.27081,-7.19315l0.89703,-1.32015l0.38927,-0.40619l0.677,-0.30464l0.71085,-0.11848l0.94781,-0.05077l1.08321,0.2031l0.94781,0.54159l0.77856,1.11705l0.03385,6.27921z" fill="#cd00ff"/></g><g stroke="#000000" stroke-width="0" stroke-linecap="round"><path d="M302.11911,46.4475l9.20719,4.78612l4.62057,2.95581l18.92398,-0.64553l-0.20385,6.55713l1.69874,0.16987l6.79498,-3.56735l5.57188,3.15965l2.3103,-0.06795l0.20385,6.69304l2.41221,-0.1359l0.37373,9.54692l-40.31115,0.03397l-2.95581,1.76668l-16.44382,-0.33976l-0.40769,-26.14688z" fill="#f0c27c"/><path d="M291.85655,52.32516l-0.61155,-1.18911l10.24561,-6.45522l11.2117,5.5379l3.7712,2.85388l21.67594,-0.84937l-2.48016,7.06676l0.64553,-0.10193l6.86292,-3.56735l6.31932,3.26159h4.4507l-0.30578,0.91732l-4.8584,0.1359l-5.55488,-3.2276l-6.82895,3.60133l-1.73271,-0.37373l0.23782,-6.38728l-18.92399,0.71347l-4.17891,-2.85388l-9.61488,-5.06224l-9.445,5.43597z" fill="#c2997a"/><path d="M294.03092,63.77467l17.05537,-0.30578l2.48016,0.06795l0.23782,9.445l21.64198,-0.1359l0.10193,3.05775h-21.94774l-2.68402,1.83464l-16.6137,-0.33976z" fill="#b08e6a"/><path d="M299.33099,65.40547l8.05202,-0.30578l0.37373,8.76551l-8.28987,-0.23783z" fill="#14ff00"/><path d="M298.54956,59.4259l-0.10193,-7.33857l8.08601,-0.23782l0.16987,7.54242z" fill="#ff0000"/><path d="M335.97288,61.94004l-1.46092,0.06795l-1.56284,1.32502l-23.13687,0.1359l-1.01925,-0.5436l-1.25708,-0.06795l-0.6795,-1.52887l30.06773,-0.50963z" fill="#c2997a"/><path d="M336.10878,66.08496l19.36566,-0.61155l-0.27179,0.84938l-19.1618,0.61155z" fill="#c2997a"/><path d="M336.07478,66.2888l0.16987,-1.59682l1.76668,-0.03397l0.1359,0.33975l9.34309,0.06795v-0.50963l3.70325,-0.27179v1.32502z" fill="#b58d6b"/><path d="M306.9074,61.32849l8.93538,-1.63079l16.85152,-0.06797l4.07698,1.29105z" fill="#353532"/><path d="M336.05781,76.07356l-0.06795,-7.71229l15.49253,-0.20385l0.23782,7.88215z" fill="#fae49b"/><path d="M350.59904,69.9241l-14.03161,0.27179v-1.25708l14.09955,-0.23782z" fill="#ff7a00"/><path d="M346.4541,64.08044l-7.37255,0.10193v-4.41673l7.47446,-0.03397z" fill="#fff500"/><path d="M332.66033,72.84596l-10.49823,0.16987l-0.06795,-7.20267l10.56618,-0.10193z" fill="#da00ff"/><path d="M315.09532,76.07356l0.1359,-10.22643l3.39748,-0.06795l-0.06795,10.22642z" fill="#c5755a"/><path d="M318.69666,67.40998l-3.53339,0.10193l0.1359,-1.73271l3.22762,-0.10193z" fill="#0700ff"/><path d="M317.9832,69.51641h-2.24234l-0.06795,-1.66477l2.20837,0.10193z" fill="#0700ff"/><path d="M333.47322,43.70646" fill="none"/><path d="M332.39772,59.16514l-10.49823,0.11623l-0.06795,-4.92841l10.56618,-0.06974z" fill="#0700ff"/></g><g stroke="#000000" stroke-width="0" stroke-linecap="round"><path d="M330.98339,8.00462l-0.15857,8.05307l-10.96713,-0.32877l-1.63282,1.61172l0.9484,0.63278l2.47752,-1.09126l30.37183,0.66918l0.13145,11.63455l-30.4289,-0.77964l-2.42609,-1.55708l-32.02207,0.02233l0.67948,-19.76982z" fill="#80827e"/><path d="M304.47721,26.05711l0.31017,-15.05032l1.53642,-0.05459l0.07163,-0.34452l0.25655,-0.62663l0.8392,-0.71923l1.04625,-0.10306l0.8544,0.35247l0.77701,0.84151l0.11687,0.69941l1.33412,-0.06263l-0.32397,15.39714z" fill="#acbfd0"/><path d="M285.51332,5.70619l49.23,1.15006l-0.75154,1.21413l-47.71574,-1.14383z" fill="#0e141d"/><path d="M318.16656,17.44649l1.47511,-1.72619l35.62312,0.55386l-0.53768,1.27674l-32.87107,-0.39012l-2.90309,0.91203z" fill="#0e141d"/><path d="M324.97799,28.58184l0.39497,-9.91346l21.7483,0.51911l0.06401,10.0186z" fill="#5d6261"/><path d="M306.43356,25.66182l0.05109,-7.30204l2.95785,0.0502l-0.06703,7.49489z" fill="#2a353d"/><path d="M311.0593,22.2922l-1.05184,0.13251l-0.01188,-3.53258l0.87334,-0.03061z" fill="#ffe100"/><path d="M306.13868,22.11796l-1.03353,0.22047l-0.00321,-3.75028l0.87334,-0.03061l0.03278,3.55523z" fill="#ffe100"/><path d="M319.1856,7.67351l-0.10087,6.36252l-6.22929,-0.16097l0.20538,-6.24933l6.53666,0.10782z" fill="#3d4448"/><path d="M318.11809,7.65278l-0.09914,6.31898l-4.01322,0.03634l0.20711,-6.29287z" fill="#0043ff"/><path d="M319.13033,17.81707l-0.03244,4.09772l-6.14829,-0.00513l0.22402,-3.98106l6.25713,0.00947z" fill="#3d4448"/><path d="M318.04103,17.79548l-0.09775,4.09511l-3.70848,0.04847l0.1282,-4.31192l0.0758,0.28647z" fill="#00ff0b"/><path d="M301.20757,17.64806l-0.19645,7.66691l-10.49326,0.14881l0.29827,-8.0335l10.52379,0.17946z" fill="#3d4448"/><path d="M299.79782,17.46108l-0.11804,7.88806l-7.74436,0.10571l0.34268,-8.05353z" fill="#ff8b00"/><path d="M290.75393,15.16027l0.21467,-8.12403l10.34357,0.32489l-0.07451,7.88979z" fill="#3d4448"/><path d="M292.28209,15.11213l0.09801,-7.93245l7.51884,0.08154l-0.12325,8.01867z" fill="#ff0000"/><path d="M305.50333,17.67267l-0.06157,-6.18783l1.41612,0.0308l-0.0154,-1.2314l0.81582,-0.73885l0.47717,-0.03078l0.4002,0.06157l0.36942,0.2001l0.64649,0.53875l0.13853,0.58492l0.03078,0.43099v0.49255l1.32377,-0.12315l-0.06157,6.0339z" fill="#cc00ff"/></g><path d="M93.18857,18.27627v-0.64103l-0.00002,-0.64104l-0.00014,-0.64103l-0.00108,-0.64104l-0.02468,-0.64056l-0.27573,-0.5787l-0.2146,-0.60404l0.64103,0.00001l0.64103,0.00005l0.64103,0.00017l0.64103,0.00184l0.6409,0.01285l0.63658,0.07539l0.64098,0.00869l0.63516,0.08659l0.6409,0.01267l0.63754,0.06684l0.64103,0.00001h0.64103l0.64103,0.00359l0.63514,0.08663l0.63515,0.08663l0.64103,0.00025l0.64103,0.00093l0.63894,0.05174l0.63894,0.05174l0.63698,0.07197l0.64104,0.00011l0.64098,0.0083l0.64098,0.00829l0.6405,0.02627l0.63942,0.04532l0.64103,-0.00019l0.64103,-0.00087l0.64101,-0.00518l0.64101,-0.00518l0.63982,-0.03945l0.63548,-0.0842l0.63548,-0.0842l0.6394,-0.04577h0.64103h0.64103h0.64103h0.64103h0.64103h0.64104h0.64103h0.64103h0.64103l0.64103,0.00001l0.64103,0.00006l0.64103,0.00014l0.64103,0.00079l0.641,0.00577l0.641,0.00576l0.64058,0.02405l0.64059,0.02405l0.63723,0.06966l0.63865,0.05522l0.63492,0.08828l0.63492,0.08828l0.64092,0.01229l0.63943,0.04531l0.63943,0.04531l0.63943,0.04531l0.64059,-0.02389l0.62657,-0.13544l0.64101,-0.00538l0.63486,-0.08879l0.63689,-0.07277l0.63689,-0.07276l0.62738,0.13159l0.26228,0.58492l0.13896,0.62578l0.13895,0.62579l0.11187,0.63119l0.11187,0.6312l0.12788,0.62815l0.13903,0.62578l0.00053,0.64103l0.00343,0.64103l0.00648,0.641l0.02021,0.64071l0.07336,0.63682l0.07336,0.63682l0.00115,0.64103l0.00114,0.64104l0.00312,0.64103l0.00855,0.64097l0.07307,0.63685l-0.00127,0.64103l-0.00234,0.64103l-0.01428,0.64087l-0.01428,0.64087l-0.03565,0.64004l-0.03564,0.64004l-0.01596,0.64084l-0.1589,0.62103l-0.20489,0.60741l-0.0913,0.6345l-0.09261,0.63431l-0.09261,0.63431l-0.14641,0.62409l-0.14641,0.62409l-0.1897,0.61232l-0.31434,0.55867l-0.31434,0.55867l-0.36789,0.52495l-0.35817,0.53164l-0.36256,0.52865l-0.4568,0.44972l-0.46214,0.44425l-0.56185,0.3086l-0.60941,0.19885l-0.63347,0.09822l-0.60742,0.20483l-0.62349,0.14893l-0.60335,0.21653l-0.626,0.13799l-0.63925,0.04772h-0.64103h-0.64103l-0.64103,0.00001h-0.64103l-0.64103,0.00006l-0.64103,0.00034l-0.64103,0.00034l-0.64103,0.00107l-0.64103,0.00107l-0.64103,0.00371l-0.64083,0.01631l-0.64082,0.01631l-0.63891,0.05216l0.19637,0.61021l0.32605,0.55192l0.31727,0.55701l0.38043,0.51594l0.25217,0.58934l0.3551,0.53369l0.2051,0.60734l0.2051,0.60734l0.22087,0.60178l0.22087,0.60177l0.22087,0.60178l0.22088,0.60178l0.29939,0.56682l0.29939,0.56682l0.32415,0.55304l0.32415,0.55304l0.24017,0.59434l0.24017,0.59434l0.24017,0.59434l0.18029,0.61516l0.18028,0.61516l0.24054,0.59419l0.24054,0.59419l0.28439,0.5745l0.28439,0.5745l0.26723,0.58267l0.26723,0.58267l0.19297,0.61129l0.19298,0.61129l0.16248,0.62009l0.16248,0.62011l0.1991,0.60933l0.1991,0.60933l0.1991,0.60933l0.24322,0.5931l0.24322,0.59311l0.24322,0.59311l0.24548,0.59217l0.24548,0.59217l0.27873,0.57727l0.27872,0.57727l0.25543,0.58794l0.25543,0.58794l0.25543,0.58794l0.25543,0.58794l0.27413,0.57946l0.27414,0.57946l0.27413,0.57946l0.28228,0.57554l-0.54198,0.34232l-0.63995,-0.03731l-0.63995,-0.03731l-0.64098,0.00807l-0.6404,0.02842l-0.63898,0.05123l-0.64011,0.03436l-0.63888,0.05242l-0.63968,0.04155l-0.63967,0.04155l-0.64103,-0.00011l-0.64103,-0.00026l-0.64103,-0.00025l-0.64103,-0.00069l-0.64056,-0.0247l-0.64055,-0.0247l-0.63882,-0.05319l-0.64001,-0.03611l-0.64001,-0.0361l-0.64103,0.00155l-0.64103,0.00155l-0.64101,0.0052l-0.64101,0.0052l-0.64078,0.01812l-0.63925,0.04771l-0.48949,-0.41391l-0.22066,-0.60186l-0.23004,-0.59832l-0.31019,-0.56099l-0.22266,-0.60113l-0.10953,-0.6316l-0.02129,-0.64067l-0.178,-0.61582l-0.17801,-0.61582l-0.20864,-0.60613l-0.20864,-0.60613l-0.25871,-0.58651l-0.25197,-0.58944l-0.25197,-0.58944l-0.15741,-0.6214l-0.15741,-0.6214l-0.20309,-0.60801l-0.20309,-0.60801l-0.20309,-0.60801l-0.20435,-0.60759l-0.22157,-0.60152l-0.22157,-0.60152l-0.32885,-0.55026l-0.32393,-0.55317l-0.15716,-0.62147l-0.27404,-0.5795l-0.27403,-0.5795l-0.20392,-0.60774l-0.20392,-0.60774l-0.23477,-0.59649l-0.23477,-0.5965l-0.23476,-0.59649l-0.30033,-0.56633l-0.30033,-0.56633l-0.33463,-0.54676l-0.33463,-0.54676l-0.22955,-0.59853l-0.22954,-0.59853l-0.22954,-0.59852l-0.30244,-0.5652l-0.30244,-0.5652l-0.31912,-0.55595v0.64103v0.64103v0.64103v0.64103v0.64103v0.64103v0.64104l0.00006,0.64103l0.00006,0.64103l0.00007,0.64103l0.00025,0.64104l0.00405,0.64102l0.00405,0.64103l0.0266,0.64048l0.0266,0.64048l0.0266,0.64048v0.64104v0.64103v0.64103v0.64103v0.64103v0.64103v0.64103v0.64103l-0.00003,0.64103l-0.00003,0.64103l-0.00002,0.64103l-0.00011,0.64104l-0.00009,0.64103l-0.00011,0.64103l-0.00011,0.64103l-0.00051,0.64103l-0.00051,0.64103l-0.00779,0.64098l-0.00779,0.64098l-0.00779,0.64099l-0.04335,0.63956l-0.04335,0.63956l-0.04335,0.63956l-0.21724,0.6031l-0.63811,-0.0612l-0.64103,-0.00006l-0.64103,-0.00045l-0.64103,-0.00138l-0.641,-0.00639l-0.64055,-0.02465l-0.63902,-0.05077l-0.63512,-0.08689l-0.64099,0.00724l-0.64065,0.02214l-0.63712,0.07074l-0.63712,0.07073l-0.64103,0.00162l-0.64103,0.00162l-0.63937,0.04606l-0.63938,0.04606l-0.63937,0.04605l-0.63937,0.04606l-0.6388,0.05343l-0.6388,0.05343l-0.6388,0.05343l-0.60336,-0.21651l-0.00056,-0.64103l-0.00057,-0.64104l-0.0021,-0.64103l-0.08597,-0.63524l-0.01384,-0.64088l-0.01384,-0.64088l-0.02972,-0.64035l-0.02972,-0.64034l0.00049,-0.64103l0.00048,-0.64103l0.00196,-0.64103l0.00196,-0.64103l0.00852,-0.64098l0.00852,-0.64098l0.00852,-0.64097l0.04261,-0.63962l0.04261,-0.63961l0.05389,-0.63876l0.0539,-0.63877l0.05389,-0.63876l0.05389,-0.63876l0.13034,-0.62764l0.13034,-0.62764l0.13034,-0.62764l0.05868,-0.63834l0.05868,-0.63834l0.13326,-0.62703l0.13326,-0.62702l0.13326,-0.62703l0.02858,-0.6404l0.02858,-0.6404l0.02858,-0.6404v-0.64103v-0.64103v-0.64104v-0.64103v-0.64103v-0.64103v-0.64103v-0.64103v-0.64103v-0.64104v-0.64103v-0.64103l0.00009,-0.64103l0.00009,-0.64103l0.00009,-0.64103l0.00011,-0.64103l0.00063,-0.64103l0.00063,-0.64104l0.00063,-0.64103l0.01358,-0.64089l0.01357,-0.64089l0.01357,-0.64088l0.01358,-0.64089l0.01357,-0.64089l0.01358,-0.64089l0.01358,-0.64088l0.06486,-0.63774l0.06486,-0.63774l0.06485,-0.63774l0.06486,-0.63774l0.02757,-0.64044l0.02757,-0.64044l0.02757,-0.64044l0.02757,-0.64044l0.02757,-0.64044l0.0745,-0.63668l0.0745,-0.63669l0.0745,-0.63668l0.0745,-0.63669l0.0745,-0.63669l0.0745,-0.63668l0.07823,-0.63624l0.07824,-0.63624l0.07823,-0.63624l0.07823,-0.63624l0.10611,-0.63219l0.10612,-0.63219l0.10612,-0.63219l0.10612,-0.63219v-0.64103z" fill="#8a8083" stroke="#000000" stroke-width="0" stroke-linecap="round"/><path d="M125.31787,33.13798l-0.07097,0.63709l-0.07542,0.63658l-0.14224,0.62505l-0.26318,0.58451l-0.63566,0.08284l-0.63905,0.05027l-0.63603,0.07994l-0.61163,0.19191l-0.64103,-0.00068l-0.64098,-0.00794l-0.64052,-0.02564l-0.64051,-0.02564l-0.63699,-0.07188l-0.63036,-0.11647l-0.63037,-0.11647l-0.64052,-0.02538l-0.64053,-0.02538l-0.64052,-0.02538l-0.64028,-0.03093l-0.64029,-0.03093l-0.6398,-0.03965l-0.63981,-0.03965l-0.6398,-0.03965l-0.64103,-0.00059l-0.64103,-0.00059l-0.64103,-0.00059l-0.64103,-0.00059l-0.64101,-0.00479l-0.64101,-0.00479l-0.64076,-0.01886l-0.64076,-0.01886l-0.64075,-0.01886h-0.64103h-0.64104l-0.64103,0.00005l-0.64103,0.00005l-0.64103,0.00004l-0.64103,0.00018l-0.64103,0.00017l-0.64103,0.00229l-0.64103,0.0023l-0.64098,0.0085l-0.6405,0.02599l-0.19752,-0.60984v-0.64103v-0.64103v-0.64103v-0.64103v-0.64103v-0.64103l0.00002,-0.64103l0.00006,-0.64104l0.00006,-0.64103l0.0002,-0.64104l0.02284,-0.64062l0.02284,-0.64062l0.02283,-0.64063l-0.00053,-0.64103l-0.00053,-0.64103l-0.00247,-0.64103l-0.00247,-0.64103l-0.00626,-0.641l-0.00626,-0.641l-0.04657,-0.63934l0.03576,-0.64002l0.11121,-0.63132l0.60737,-0.20501l0.63017,-0.11752l0.63967,-0.0418l0.63931,0.04687l0.64103,0.00011l0.64103,0.00048l0.64103,0.0026l0.64072,0.01981l0.63651,0.07599l0.6398,0.03963l0.64073,0.01965l0.63011,0.11778h0.64103h0.64103h0.64103l0.64103,-0.00006l0.64103,-0.00009l0.64103,-0.00048l0.64088,-0.01402l0.64059,-0.02381l0.6302,-0.11731l0.63888,-0.05259l0.64103,-0.00166l0.64103,-0.0036l0.64027,-0.03121l0.64027,-0.03121l0.64103,0.00001h0.64103l0.64104,0.00002l0.64103,0.00002l0.64103,0.00013l0.64103,0.00096l0.64103,0.00095l0.64102,0.00432l0.64101,0.00432l0.63929,0.04728l0.63929,0.04729l0.63984,0.03899l0.63501,0.08767l0.61937,0.16525l0.0638,0.63784v0.64104v0.64103v0.64104v0.64103v0.64104v0.64103v0.64104v0.64103v0.64103v0.64103l-0.00003,0.64103l-0.00003,0.64104l-0.00003,0.64103l-0.00012,0.64104l-0.001,0.64103l-0.00341,0.64103l-0.00769,0.64099l-0.12571,0.62859z" fill="#b9b9b5" stroke="#000000" stroke-width="0" stroke-linecap="round"/><path d="M211.31491,76.35457l-0.71463,0.00029l-0.71463,0.00082l-0.71462,0.00221l-0.71446,0.01554l-0.7018,0.13482l-0.69693,0.15807l-0.71418,0.02544l-0.71304,0.04755l-0.71155,0.06626l-0.71155,0.06624l-0.71206,0.06052l-0.71206,0.06052l-0.71414,0.02638l-0.70685,0.10519l-0.71458,0.00863l-0.71458,0.00863l-0.71457,0.00863l-0.7071,0.10345l-0.70711,0.10343l-0.71396,0.03086l-0.71396,0.03087l-0.71397,0.03086l-0.71164,0.06527l-0.71164,0.06527l-0.71459,-0.0081l-0.71366,-0.03711l-0.71366,-0.03711l0.49744,-0.51307l0.58455,-0.41108l0.34087,-0.62809l0.31029,-0.64375l0.25087,-0.66915l0.25088,-0.66915l0.25982,-0.66572l0.29685,-0.65006l0.29685,-0.65006l0.2605,-0.66546l0.2605,-0.66546l0.28542,-0.65516l0.20383,-0.68495l0.19234,-0.68826l0.19234,-0.68826l0.18159,-0.69117l0.18158,-0.69118l0.30921,-0.64426l0.30921,-0.64428l0.283,-0.6562l0.283,-0.65621l0.31835,-0.6398l0.31455,-0.64168l0.31455,-0.64168l0.34959,-0.62328l0.34959,-0.62328l0.36355,-0.61525l0.36355,-0.61525l0.3393,-0.62894l0.32968,-0.63405l0.32968,-0.63404l0.25209,-0.66869l0.25209,-0.66869l0.26044,-0.66548l0.26046,-0.66548l0.26044,-0.66548l0.26044,-0.66548l0.31947,-0.63925l0.31947,-0.63925l0.31946,-0.63925l0.31947,-0.63924l0.31908,-0.63945l0.31908,-0.63945l0.31908,-0.63944l0.30196,-0.6477l0.30196,-0.6477l0.30196,-0.64771l0.30196,-0.6477l0.30196,-0.64771l0.30196,-0.64771l0.26748,-0.66268l0.26749,-0.66268l0.26748,-0.66268l0.22241,-0.67914l0.2224,-0.67914l0.2224,-0.67914l0.2224,-0.67914l0.23431,-0.67513l0.23431,-0.67512l0.52762,-1.24875l-0.53744,-0.471l-0.46409,-0.54343l-0.38839,-0.59988l-0.33367,-0.63195l-0.4046,-0.58905l-0.48451,-0.52529l-0.54083,-0.46713l-0.37729,-0.60692l-0.38752,-0.60043l-0.36245,-0.61589l-0.35829,-0.61832l-0.46546,-0.54226l-0.46546,-0.54226l-0.47595,-0.53308l-0.47595,-0.53308l-0.43647,-0.56585l-0.43646,-0.56586l-0.3785,-0.60616l-0.3785,-0.60616l-0.3785,-0.60616l-0.41427,-0.58229l-0.41427,-0.5823l-0.41427,-0.5823l-0.38353,-0.60299l-0.38353,-0.60299l-0.39518,-0.59542l-0.39517,-0.59543l-0.39517,-0.59543l-0.39518,-0.59543l-0.43253,-0.56887l-0.43253,-0.56887l-0.38903,-0.59946l-0.38902,-0.59946l-0.38903,-0.59947l-0.48917,-0.52096l-0.48918,-0.52096l-0.48918,-0.52096l-0.48917,-0.52096l-0.45946,-0.54735l-0.45946,-0.54735l-0.42451,-0.57488l-0.42451,-0.57488l-0.42452,-0.57488l-0.42451,-0.57488l-0.42452,-0.57488l-0.40361,-0.58974l-0.40361,-0.58974l-0.40361,-0.58974l-0.45053,-0.55472l-0.45053,-0.55472l-0.45053,-0.55472l-0.38909,-0.59941l-0.38909,-0.59941l-0.38909,-0.59941l-0.38909,-0.59942l-0.13679,-0.70141l0.6804,0.21851l0.71457,0.00955l0.7106,0.07587l0.71187,0.06273l0.71462,0.00004l0.71464,0.00011l0.71463,0.00072l0.71361,0.03804l0.71361,0.03804l0.71464,0.00003l0.71462,0.00006l0.71462,0.00275l0.71462,0.0047l0.71448,0.01427l0.71185,0.06309l0.71183,0.06309l0.71459,-0.00816l0.71438,-0.01865l0.71113,-0.07067l0.71113,-0.07067l0.71355,-0.03925l0.71355,-0.03925l0.7141,-0.02755l0.71409,-0.02755l0.71463,0.00014l0.71445,0.01605l0.71445,0.01604l0.71324,0.04458l-0.19202,-0.00064l0.71453,-0.01185l0.71172,-0.06451l0.71451,-0.013l0.70886,-0.09066l0.71254,-0.05463l0.71425,-0.02301l0.71427,-0.02301l0.68867,-0.19086l0.24718,0.67052l0.14413,0.69994l0.36697,0.61321l0.18566,0.69009l0.24405,0.67166l0.2513,0.66899l0.38535,0.60183l0.34693,0.62477l0.34693,0.62477l0.32301,0.63746l0.38784,0.60022l0.26814,0.66242l0.28313,0.65616l0.3426,0.62714l0.24602,0.67095l0.39315,0.59677l0.37762,0.60671l0.34595,0.6253l0.2216,0.67941l0.33785,0.62972l0.27344,0.66025l0.27344,0.66025l0.31054,0.64363l0.3586,0.61814l0.3586,0.61814l0.3586,0.61814l0.33363,0.63197l0.19301,0.68807l0.26002,0.66565l0.26001,0.66565l0.29254,0.65201l0.4393,0.56367l0.43929,0.56366l0.2873,0.65433l0.36035,0.61713l0.36035,0.61712l0.27098,0.66126l0.23493,0.67492l0.23491,0.67492l0.45856,0.54811l0.18319,-0.69076l0.18879,-0.68924l0.25973,-0.66575l0.25974,-0.66575l0.22951,-0.67677l0.23473,-0.67498l0.35128,-0.62234l0.25216,-0.66866l0.2847,-0.65547l0.34193,-0.62752l0.34193,-0.6275l0.3482,-0.62407l0.28643,-0.65471l0.28643,-0.65471l0.37176,-0.61031l0.21091,-0.6828l0.22667,-0.67772l0.22925,-0.67686l0.22925,-0.67686l0.26002,-0.66565l0.19961,-0.68619l0.19961,-0.68618l0.25181,-0.6688l0.25324,-0.66825l0.22183,-0.67933l0.22181,-0.67933l0.26666,-0.66302l0.2871,-0.65443l0.2871,-0.65443l0.2871,-0.65442l0.24194,-0.67242l0.24195,-0.67242l0.24476,-0.67141l0.29087,-0.65275l0.29087,-0.65276l0.29087,-0.65275l0.27742,-0.65858l0.27743,-0.65858l0.24396,-0.6717l0.46264,-0.54466h0.71463l0.71463,-0.00026l0.7146,-0.00665l0.70808,-0.09654l0.71284,-0.05052l0.71463,-0.00011l0.71462,-0.00073l0.71453,-0.01212l0.71435,-0.02021l0.71224,-0.05837l0.71432,-0.02085l0.71339,-0.04216l0.71462,-0.00224l0.71462,-0.00376l0.71454,-0.01105l0.71433,-0.02078l0.71292,-0.0494l0.70825,-0.09528l0.69735,-0.1562l0.69735,-0.15619l0.68224,-0.21274l0.70601,-0.11067l-0.23963,0.67325l-0.33505,0.63121l-0.21307,0.68213l-0.25558,0.66735l-0.25558,0.66736l-0.29931,0.64893l-0.27485,0.65966l-0.21009,0.68306l-0.31634,0.6408l-0.2794,0.65774l-0.2794,0.65775l-0.2794,0.65774l-0.32085,0.63856l-0.38764,0.60036l-0.46517,0.5425l-0.46644,0.54141l-0.36418,0.61488l-0.29608,0.6504l-0.18947,0.68905l-0.18947,0.68906l-0.28634,0.65475l-0.28634,0.65476l-0.31941,0.63927l-0.31941,0.63927l-0.31942,0.63927l-0.31941,0.63927l-0.28272,0.65632l-0.28271,0.65632l-0.28272,0.65632l-0.3773,0.60691l-0.37731,0.6069l-0.3773,0.6069l-0.33347,0.63206l-0.33347,0.63205l-0.33347,0.63205l-0.33347,0.63206l-0.32318,0.63738l-0.32318,0.63738l-0.32318,0.63738l-0.32318,0.63738l-0.28796,0.65405l-0.28795,0.65405l-0.28796,0.65403l-0.28796,0.65405l-0.28415,0.65571l-0.86183,1.34627l0.31082,0.6435l0.31082,0.64349l0.29577,0.65055l0.27706,0.65875l0.27705,0.65874l0.3742,0.60882l0.3742,0.60882l0.39143,0.59789l0.31333,0.64228l0.19267,0.68816l0.2799,0.65753l0.2799,0.65753l0.23272,0.67568l0.39306,0.59682l0.26299,0.66447l0.3576,0.61872l0.3576,0.61873l0.35759,0.61872l0.34737,0.62453l0.34737,0.62453l0.26466,0.66382l0.26465,0.66382l0.37283,0.60967l0.37283,0.60967l0.37283,0.60967l0.33793,0.62968l0.27737,0.65861l0.27736,0.6586l0.25471,0.66769l0.24425,0.67159l0.28362,0.65594l0.28362,0.65594l0.28362,0.65594l0.26755,0.66265l0.2115,0.68262l0.25214,0.66867l0.25215,0.66866l0.25214,0.66868l0.27244,0.66065l0.27243,0.66066l0.39546,0.59524l0.39546,0.59524l0.39545,0.59524l0.29866,0.64922l0.29866,0.64923l0.35716,0.61898l0.35715,0.61897l0.35716,0.61898l0.35489,0.62029l0.35488,0.62029l0.35488,0.62029l0.3967,0.59441l0.39671,0.5944l0.39876,0.59303l0.39876,0.59303l0.3298,0.63398l0.32979,0.63398l0.3298,0.63398l0.33164,0.63302l0.33165,0.63301l0.30541,0.64608l0.30541,0.64608l0.11042,0.70605l-0.43411,0.56767l-0.71029,0.07869l-0.71047,0.077l-0.71168,0.06491l-0.71168,0.06491l-0.68831,0.19213l-0.67243,0.24193l-0.68737,0.1955h-0.71462h-0.71463h-0.71462h-0.71463h-0.71463l-0.71462,0.00002l-0.71464,0.00111l-0.71463,0.00111l-0.71462,0.00111l-0.7141,0.02729l-0.7141,0.02729l-0.71412,0.02729l-0.71457,0.00856l-0.70426,0.12131l-0.70426,0.12131l-0.70425,0.12131l-0.69747,0.15569l-0.67653,0.23024l-0.67417,0.23701l-0.70876,0.09138l-0.42254,-0.57632l-0.14693,-0.69936l-0.19774,-0.68672l-0.16342,-0.69569l-0.19539,-0.6874l-0.11155,-0.70587l-0.2077,-0.68377l-0.10607,-0.70672l-0.11382,-0.7055l-0.05472,-0.71253l-0.21351,-0.68199l-0.2135,-0.68199l-0.21914,-0.6802l-0.14172,-0.70044l-0.17424,-0.69306l-0.17424,-0.69306l-0.17424,-0.69306l-0.25799,-0.66643l-0.16433,-0.69548l-0.16433,-0.69548l-0.24275,-0.67214l-0.24274,-0.67214l-0.16718,-0.6948l-0.15183,-0.69832l-0.15183,-0.69832l-0.18414,-0.69049l-0.18414,-0.6905l-0.26694,-0.66291l-0.26694,-0.66291l-0.26694,-0.66291l-0.19361,-0.6879l-0.19361,-0.6879l-0.19361,-0.6879l-0.19522,-0.68745l-0.19522,-0.68745l-0.19522,-0.68745l-0.17334,-0.69329l-0.17334,-0.69328l-0.17334,-0.69329l-0.17394,-0.69314l-0.17394,-0.69313l-0.17394,-0.69313l-0.17394,-0.69313l-0.22469,-0.67839l-0.22469,-0.67839l-0.22469,-0.67839l-0.21278,-0.68221l-0.21277,-0.68221l-0.21279,-0.68222l-0.31293,-0.64247l-0.31293,-0.64247l-0.31292,-0.64247l-0.36406,0.61494l-0.31007,0.64386l-0.35872,0.61807l-0.30441,0.64656l-0.24466,0.67144l-0.22658,0.67776l-0.137,0.70137l-0.15172,0.69834l-0.12145,0.70423l-0.16493,0.69534l-0.29295,0.65182l-0.23781,0.6739l-0.23781,0.6739l-0.2374,0.67405l-0.23739,0.67405l-0.22741,0.67749l-0.37828,0.6063l-0.28373,0.65589l-0.26248,0.66468l-0.28823,0.65393l-0.28824,0.65392l-0.26806,0.66245l-0.31623,0.64085l-0.28649,0.65468l-0.2865,0.65468l-0.21845,0.68042l-0.305,0.64627l-0.19258,0.68819l-0.20335,0.68508l-0.2908,0.65278l-0.2908,0.65278l-0.29081,0.65278l-0.27699,0.65876l-0.37705,0.60706l-0.37705,0.60706l-0.32878,0.63451l-0.32879,0.63451l-0.23078,0.67634l-0.31996,0.639l-0.31995,0.639l-0.31996,0.639l-0.32575,0.63607l-0.32575,0.63607l-0.32574,0.63607l-0.27564,0.65934l-0.27564,0.65933l-0.23867,0.6736l-0.23867,0.67359l-0.23867,0.67359l-0.28713,0.65441l-0.28713,0.65441l-0.32466,0.63663l-0.32465,0.63662l-0.39641,0.59461l0.72997,-0.29024z" fill="#7a7970" stroke="#000000" stroke-width="0" stroke-linecap="round"/><path d="M148.18001,36.19455l-0.34179,0.06841l0.33698,0.08913l0.34246,0.06494l0.34697,0.03328l0.3485,-0.00697l0.33371,-0.10066l0.33927,0.07997l0.31805,0.14261l0.22114,0.26943l-0.00501,0.34853l-0.009,0.34844l-0.01718,0.34815l-0.04354,0.34583l-0.00424,0.34855l-0.01604,0.3482l-0.05284,0.34454l-0.00696,0.3485l-0.00696,0.3485l-0.01501,0.34824l0.0101,0.34842l0.01886,0.34806l0.00021,0.34857l0.00056,0.34857l0.00119,0.34856l0.0022,0.34856l0.0069,0.3485l0.02634,0.34757l-0.00053,0.34857l-0.00053,0.34857l-0.00624,0.3485l-0.03394,0.34691l-0.03394,0.34691l-0.00431,0.34854l-0.00431,0.34854l-0.0266,0.34755l-0.05136,0.34476l-0.16072,0.3093l-0.1106,0.33056l-0.23878,0.25393l-0.19478,0.28906l-0.24796,0.24497l-0.30124,0.17537l-0.33021,0.11161l-0.34725,0.03031l-0.34833,0.01268l-0.34716,0.0313l-0.34728,0.03001h-0.34857h-0.34857h-0.34857h-0.34857h-0.34857l-0.34857,-0.00012l-0.34857,-0.00023l-0.34856,-0.00045l-0.34855,-0.00407l-0.34854,-0.00407l-0.34691,-0.03388l-0.34809,-0.01832l-0.34809,-0.01832l-0.3485,-0.00659l-0.34624,-0.0402l-0.34624,-0.0402l-0.34649,-0.03793l-0.34649,-0.03794l-0.34649,-0.03793l-0.34739,-0.02864l-0.34739,-0.02864l-0.34857,0.00062l-0.34856,0.00062l-0.34857,0.00062l-0.34855,0.00381l-0.34855,0.00381l-0.34837,0.01178l-0.34785,0.02234l-0.25605,0.23651l-0.001,0.34857l-0.00609,0.3485l-0.01333,0.34832l-0.03008,0.34727l-0.0218,0.34788l-0.04694,0.34539l-0.03069,0.34721l0.00006,0.34856l0.00129,0.34857l0.00129,0.34856l0.00783,0.34847l0.00783,0.34847l0.02196,0.34788l0.3462,0.04054l0.331,0.10928l0.34856,0.00156l0.34671,0.03598l0.34856,0.00021l0.34857,0.00121l0.34854,0.00418l0.34838,0.01162l0.34747,0.0276l0.34785,0.02231l0.34587,0.04325l0.34362,0.05852l0.34721,0.03063l0.34744,0.02805l0.34853,0.00547l0.34731,0.02955l0.34857,-0.00053l0.34857,-0.00103l0.34838,-0.01126l0.34792,-0.02129l0.31346,-0.15243l0.1839,-0.29611l0.09745,-0.33466l0.06536,-0.34238l0.04107,-0.34614l0.28245,-0.20426l0.33625,-0.09185l0.32511,-0.12571l0.3408,-0.07316l0.34781,-0.02296l0.34853,0.00498l0.34843,0.00974l0.33516,0.09572l0.34843,0.00943l0.34498,0.04987l0.34616,0.04093l0.34649,0.03799l0.33722,0.08822l0.34673,0.03568l0.34857,-0.00011l0.34856,-0.00108l0.34648,-0.03813l0.34839,-0.01101l0.34249,-0.06475l-0.02463,0.34769l-0.048,0.34524l-0.00039,0.34857l-0.00244,0.34856l-0.02748,0.34748l-0.04487,0.34567l-0.00022,0.34857l-0.00048,0.34857l-0.00136,0.34857l-0.00903,0.34844l-0.04011,0.34626l-0.04011,0.34625l-0.03753,0.34654l-0.03753,0.34654l-0.07515,0.34037l-0.03332,0.34697l-0.29585,0.18432l-0.34511,0.04892l-0.34671,0.03594h-0.34856h-0.34857h-0.34857h-0.34857h-0.34857l-0.34857,0.00003l-0.34856,0.00016l-0.34855,0.00269l-0.34856,0.00269l-0.3482,0.01598l-0.3482,0.01598h-0.34856l-0.34857,-0.00002l-0.34857,-0.00002l-0.34857,-0.00005l-0.34857,-0.00086l-0.34856,-0.00086l-0.34857,-0.00086l-0.34856,-0.00282l-0.34851,-0.00629l-0.34832,-0.01304l-0.34832,-0.01303l-0.34856,-0.00037l-0.34856,-0.002l-0.34856,-0.00199l-0.34845,-0.00904l-0.34719,-0.03099l-0.34822,-0.01533l-0.34823,-0.01534l-0.34857,-0.00048l-0.34857,-0.0005l-0.34856,-0.00162l-0.34856,-0.00162l-0.3485,-0.00696l-0.34849,-0.00696l-0.3485,-0.00697l-0.3453,-0.04759l-0.3453,-0.04759l-0.3453,-0.04759l-0.34801,-0.01968l-0.34801,-0.01968l-0.34801,-0.01968l-0.34402,-0.0561l-0.34402,-0.05609l-0.34779,-0.02313l-0.34779,-0.02313l-0.34584,-0.04348l-0.34584,-0.04348l-0.34584,-0.04348l-0.25312,-0.23964l-0.06515,-0.34242l-0.08888,-0.33704l-0.05683,-0.34391l-0.03108,-0.34718l-0.00914,-0.34844l-0.05094,-0.34482l-0.05094,-0.34482l-0.00045,-0.34857l-0.00045,-0.34857l-0.00152,-0.34856l-0.0073,-0.3485l-0.0073,-0.34849l-0.02044,-0.34797v-0.34856v-0.34857v-0.34857v-0.34857v-0.34857v-0.34857v-0.34856v-0.34857v-0.34857v-0.34857v-0.34857v-0.34857l-0.00008,-0.34856l-0.00008,-0.34857l-0.00031,-0.34857l-0.00031,-0.34857l-0.00111,-0.34857l-0.00299,-0.34855l-0.00734,-0.34849l-0.00734,-0.34849l-0.02332,-0.34779l-0.0123,-0.34835l-0.0123,-0.34835l-0.03635,-0.34666l-0.03011,-0.34727l-0.03237,-0.34706l-0.03237,-0.34706l-0.03918,-0.34636l-0.03918,-0.34636l-0.02196,-0.34787l0.00846,-0.34846l0.00846,-0.34847l0.00846,-0.34846l0.02683,-0.34753l0.03306,-0.34699l0.03306,-0.34699l0.03306,-0.34699l0.08612,-0.33776l0.10177,-0.33338l0.11512,-0.329l0.13014,-0.32336l0.17626,-0.30072l0.26672,-0.22441l0.32103,-0.13581l0.32817,-0.11749l0.33638,-0.0914l0.33637,-0.0914l0.34683,-0.03474l0.34856,0.00127l0.34832,0.01317l0.34765,0.02521l0.34831,0.01356l0.34658,0.03716l0.34746,0.02778l0.34105,0.072l0.34816,0.01698l0.34815,0.01699l0.34519,-0.04833l0.3452,-0.04833l0.34374,-0.05785l0.34745,-0.02783l0.34745,-0.02783l0.34757,-0.02619l0.34713,-0.03169l0.34795,-0.02059l0.34796,-0.02059l0.34459,-0.05251l0.34459,-0.05251l0.34854,-0.0043l0.34854,-0.0043l0.3482,-0.01606l0.3482,-0.01606l0.34819,-0.01606l0.3482,-0.01606l0.34857,0.00018l0.34857,0.00018l0.34857,0.00018l0.34856,0.00083l0.34857,0.00083l0.34857,0.00084l0.34855,0.00323l0.34855,0.00324l0.34855,0.00324l0.34771,0.02434l0.34807,-0.0186l0.34807,-0.0186h0.34857z" fill="#aca8a3" stroke="#000000" stroke-width="0" stroke-linecap="round"/><path d="M147.43627,38.54597l0.11535,0.32893l0.07781,0.33977l0.08961,0.33684l-0.02283,0.34782l-0.04576,0.34555l-0.00001,0.34857l-0.00009,0.34857l-0.00039,0.34857l-0.00232,0.34855l-0.00497,0.34853l-0.02038,0.34797l-0.02037,0.34797l-0.03297,0.347l-0.04449,0.34572l-0.04449,0.34572l-0.10271,0.33309l-0.11572,0.3288l-0.17235,0.30297l-0.19226,0.29074l-0.34181,0.0683l-0.34855,0.00384l-0.34706,0.0324l-0.34857,0.00012l-0.3214,0.13493l-0.34377,0.05764l-0.34751,0.02703l-0.34357,0.05884l-0.34201,0.06732l-0.34697,0.03326l-0.34159,0.06936l-0.34159,0.06936l-0.34612,0.04123l-0.34612,0.04123l-0.34849,-0.00748l-0.34849,-0.00748l-0.34849,-0.00748l-0.34759,-0.02607l-0.34566,-0.04495l-0.34566,-0.04495l-0.34566,-0.04495l-0.34638,-0.03896l-0.34638,-0.03895l-0.34627,-0.03996l-0.34627,-0.03996l-0.34622,-0.04036l-0.34623,-0.04034l-0.34188,-0.06791l-0.33274,-0.10386l-0.291,-0.19188l-0.00037,-0.34857l-0.00057,-0.34857l-0.00271,-0.34856l-0.04302,-0.3459l-0.0283,-0.34742v-0.34857v-0.34857l0.00001,-0.34857l0.00014,-0.34856l0.00014,-0.34857l0.00036,-0.34857l0.00123,-0.34856l0.00332,-0.34855l0.00565,-0.34851l0.03509,-0.3468l0.02519,-0.34765l0.08961,-0.33684l0.13697,-0.32053l0.15471,-0.31235l0.34195,-0.06758l0.34856,-0.00156l0.34855,-0.00402l0.34713,-0.03158h0.34857l0.34857,0.00001l0.34857,0.00009l0.34857,0.00017l0.34857,0.00123l0.34856,0.00122l0.3468,0.03507l0.34857,0.00066l0.34857,0.00066l0.34852,0.00584l0.34836,0.01184l0.34682,0.03489l0.34737,0.02881l0.34737,0.02881l0.34646,0.03827l0.34857,-0.00011l0.34857,-0.00099l0.34821,-0.0159l0.34821,-0.01589l0.34603,-0.04203l0.34857,0.00018l0.34857,0.00018l0.34854,0.00418l0.34854,0.00418l0.34843,0.00954l0.3047,0.16927z" fill="#5e6064" stroke="#000000" stroke-width="0" stroke-linecap="round"/><path d="M153.24222,36.63822l0.34295,-0.06235l0.3485,-0.0066l0.3481,-0.01793l0.3481,-0.01793l0.34855,-0.00328l0.34855,-0.00328l0.34857,-0.00108l0.34857,-0.00007l0.34856,-0.00004l0.34857,-0.00002h0.34857l0.34754,0.02671l0.34847,0.00787l0.34855,0.00288l0.34557,0.04558l0.34801,0.01961l0.34847,0.00787l0.34857,0.00141l0.34857,0.00057l0.34857,0.00003h0.34857h0.34857h0.34857h0.34857h0.34857h0.34857h0.34857h0.34857h0.34857h0.34857h0.34857l0.34792,0.02125l0.34795,0.0207l0.34795,0.0207l0.34663,0.03672l0.34842,0.00996l0.34855,0.00251l0.3428,-0.06312l0.34852,-0.0059l0.34853,-0.00476l0.34857,-0.00037l0.34857,-0.00009l0.34857,-0.00003l0.34781,0.02289l0.34176,0.06854l0.28968,0.19386l0.27338,0.21624l0.09159,0.33632l0.06177,0.34305l0.06177,0.34305l0.01529,0.34823l0.01528,0.34822l0.00474,0.34853l0.00474,0.34853l0.02652,0.34755l0.02652,0.34755l0.00716,0.3485l0.00716,0.34849l0.00716,0.34849l0.0003,0.34857l0.0003,0.34857l-0.02293,0.34781l-0.02293,0.34781l-0.02293,0.34781l-0.0028,0.34855l-0.0028,0.34855l-0.01223,0.34835l-0.01222,0.34835l-0.01223,0.34835l-0.01637,0.34818l-0.01637,0.34818l-0.00226,0.34856l-0.00226,0.34856l-0.00088,0.34857l0.01928,0.34802l0.00931,0.34844l0.00417,0.34854l0.00176,0.34856l0.00177,0.34856l0.00019,0.34857l0.0002,0.34857l-0.01684,0.34816l-0.01683,0.34816l-0.02715,0.34751l-0.01113,0.34839l-0.01746,0.34813l-0.01747,0.34813l-0.00405,0.34854l0.02425,0.34773l0.04574,0.34555l0.01975,0.34801l0.01974,0.34801l0.03714,0.34658l0.00152,0.34856l0.00023,0.34857l0.00011,0.34857v0.34857v0.34857v0.34857v0.34857v0.34857v0.34857l-0.08516,0.338l-0.12026,0.32716l-0.26987,0.22061l-0.33753,-0.087l-0.33753,-0.08699l-0.34655,-0.03743l-0.34655,-0.03743l-0.34784,-0.02256l-0.34853,-0.00512l-0.34853,-0.00512l-0.34853,-0.00512l-0.34698,-0.03325l-0.34697,-0.03325l-0.34756,-0.02643l-0.34779,-0.02326l-0.34779,-0.02326l-0.34779,-0.02326l-0.34779,-0.02326l-0.34857,-0.00188l-0.34856,-0.00188l-0.34826,-0.01472l-0.34825,-0.01472l-0.34855,-0.00358l-0.34855,-0.00358l-0.34856,-0.00123l-0.34857,-0.00048l-0.34857,-0.00018l-0.34856,-0.00008l-0.34857,-0.00003l-0.34371,-0.058l-0.34686,-0.03451l-0.34824,-0.01505l-0.3478,-0.02306l-0.34838,-0.01143l-0.34855,-0.00384l-0.34855,-0.00383l-0.34666,0.03635l-0.34666,0.03635l-0.34109,0.07181l-0.34604,0.04189l-0.34857,0.00071l-0.34857,0.00011l-0.34857,0.00002h-0.34857h-0.34857l-0.3475,-0.02726l-0.34193,-0.06767l-0.34813,-0.01746l-0.17228,-0.30301l-0.07652,-0.34006l-0.07651,-0.34006l-0.07651,-0.34006l-0.045,-0.34564l-0.045,-0.34566l-0.045,-0.34564l-0.04372,-0.34581l-0.04373,-0.34581l0.00996,-0.34842l0.00996,-0.34842l0.04747,-0.34532l0.04747,-0.34531l0.04747,-0.34532l0.00372,-0.34855l0.00371,-0.34854l0.00026,-0.34857l0.00007,-0.34857l0.00002,-0.34857v-0.34857l0.02073,-0.34795l0.05432,-0.3443l0.04265,-0.34595l0.04264,-0.34595l0.01213,-0.34835l0.01213,-0.34835l0.00173,-0.34856l0.00041,-0.34857l0.00041,-0.34857l0.0004,-0.34857l0.00008,-0.34857l0.02059,-0.34796l0.03692,-0.3466l0.03309,-0.34699l0.04175,-0.34606l0.01383,-0.34829l0.05723,-0.34383l0.05194,-0.34467l0.0402,-0.34623l0.24739,-0.24556l0.30333,-0.17172l0.34046,-0.07475l0.34708,-0.03215l0.34734,-0.02922l0.34673,-0.03571l0.34681,-0.03495l0.34476,-0.05138l0.34742,-0.02825l0.34645,-0.0383l0.34846,-0.00824l0.34856,-0.00247l0.34857,-0.00029l0.34768,0.0249l0.33983,0.07752l0.34706,0.03238l0.34632,0.03946l0.34847,0.00807l0.34853,0.00477l0.34857,0.00018l0.3384,0.08359l0.34457,0.05258l0.34429,0.05448l0.34767,0.02499l0.34843,0.00933l0.34465,0.0521l0.34067,0.07377l0.34532,0.04752l0.34834,0.01248l0.34856,0.00167l0.34695,-0.0335l0.33553,-0.09445l0.31129,-0.15683l0.31151,-0.1564l0.19992,-0.28552l0.18741,-0.29389l0.11555,-0.32885l0.0368,-0.34662l-0.24834,-0.24459l-0.34532,-0.04747l-0.34691,0.0339l-0.33895,0.08132l-0.34752,0.02695l-0.34849,0.00724l-0.34857,0.00018l-0.34857,0.00003l-0.34787,0.02216l-0.34834,0.01248l-0.34857,0.00177l-0.34857,0.00074l-0.34857,0.00033l-0.34856,0.00003l-0.34779,-0.02318l-0.33856,-0.0829l-0.34852,-0.00564l-0.34857,-0.00059l-0.34857,-0.0002l-0.34857,-0.00006l-0.34346,-0.05945l-0.34632,-0.03954l-0.34845,-0.00892l-0.34855,-0.00366l-0.34804,-0.01922l-0.34803,-0.01922l-0.34857,-0.00008l-0.34856,-0.00003h-0.34857h-0.34857h-0.34857l-0.33275,-0.10382l-0.34846,-0.00835l-0.34857,-0.0004h-0.34857h-0.34857l-0.13789,-0.32013l-0.04047,-0.34621l-0.03623,-0.34668l-0.03623,-0.34668l-0.01795,-0.3481l-0.00745,-0.34849l-0.00745,-0.34849l0.04537,-0.3456l0.02052,-0.34796l0.0399,-0.34628l0.10243,-0.33318l0.01531,-0.34823z" fill="#80827e" stroke="#000000" stroke-width="0" stroke-linecap="round"/><path d="M164.50526,46.24669l-0.34835,0.01198l0.34241,0.06522l0.34714,0.03157l0.32987,-0.11265l0.34765,-0.02544l0.2528,0.23997l-0.00079,0.34857l-0.00841,0.34846l-0.03855,0.34643l-0.06479,0.34249v0.34857l-0.00002,0.34857l-0.00011,0.34856l-0.00025,0.34857l-0.00046,0.34857l-0.00785,0.34847l-0.00785,0.34849l-0.02329,0.34778l-0.02526,0.34765l-0.02526,0.34765l-0.02526,0.34765l-0.00425,0.34854l-0.01372,0.34829l-0.01372,0.34829l-0.12132,0.32677l-0.12132,0.32677l-0.13077,0.3231l-0.2991,0.179l-0.34682,0.03482l-0.34202,0.06725l-0.34857,0.00087l-0.34855,0.00286l-0.34543,0.04664l-0.34772,0.02426l-0.34857,-0.00168l-0.34856,-0.00169l-0.34809,-0.01829l-0.34809,-0.01829l-0.34855,-0.00385l-0.34669,-0.03618l-0.34668,-0.03618l-0.34669,-0.03619l-0.34853,-0.00524l-0.34853,-0.00524l-0.34824,-0.01513l-0.34824,-0.01513l-0.34824,-0.01513l-0.34787,-0.02197l-0.34003,-0.07671l-0.2959,-0.18423l0.00346,-0.34855l0.00509,-0.34853l0.02977,-0.3473l0.00154,-0.34856l0.0099,-0.34842l0.02527,-0.34765v-0.34857l-0.00003,-0.34857l-0.00005,-0.34857l-0.00031,-0.34857l-0.00031,-0.34857l-0.00128,-0.34857l-0.03792,-0.34649l-0.03072,-0.34721l-0.03071,-0.34721l-0.03071,-0.34721l-0.02416,-0.34773l-0.07487,-0.34043l-0.07487,-0.34043l-0.07486,-0.34043l-0.13866,-0.31981l0.11013,-0.33071l0.33715,-0.08848l0.3329,-0.10334l0.3468,-0.03499l0.34787,-0.02218l0.3485,0.00612l0.34722,0.03054l0.3485,0.00642l0.34775,0.02395l0.33865,0.08252l0.34643,0.03859l0.34643,0.03858l0.34623,0.04022l0.34459,0.05246l0.3446,0.05247l0.34857,-0.0009l0.34855,-0.00321l0.34678,-0.03519l0.34678,-0.03518l0.34857,0.00043l0.34856,0.00266l0.34855,0.00266l0.31733,0.14424z" fill="#e2e9ee" stroke="#000000" stroke-width="0" stroke-linecap="round"/><path d="M173.55447,26.55899l0.33382,-0.10029l0.34743,0.02801h0.34857h0.34857h0.34857h0.34857l0.34856,0.00002l0.34857,0.0002l0.34857,0.00094l0.34855,0.00317l0.3484,0.01087l0.34777,0.02354l0.34577,0.04403l0.31911,0.14025l-0.01062,0.3484l-0.02564,0.34762l0.00128,0.34857l0.00289,0.34855l0.01969,0.34801l0.05099,0.34482v0.34857v0.34857v0.34857v0.34857v0.34857v0.34857v0.34857v0.34857v0.34857v0.34857v0.34857v0.34857v0.34857v0.34857v0.34857v0.34857v0.34857v0.34857v0.34857v0.34857v0.34857v0.34857v0.34857v0.34857v0.34857v0.34857v0.34857v0.34856v0.34857v0.34857v0.34857v0.34857v0.34857v0.34856v0.34857v0.34857v0.34857v0.34857v0.34857v0.34856v0.34857v0.34857v0.34857v0.34857v0.34857v0.34856v0.34857v0.34857v0.34857v0.34857v0.34857v0.34857v0.34857v0.34857v0.34857v0.34857v0.34857v0.34857v0.34857v0.34857v0.34857v0.34857v0.34857v0.34857v0.34857v0.34857v0.34857v0.34857v0.34857v0.34857v0.34857v0.34857v0.34857l0.0002,0.34857l0.0002,0.34857l0.0002,0.34857l0.0002,0.34857l0.0002,0.34857l0.0014,0.34856l0.0014,0.34856l0.00139,0.34856l0.12803,0.32421l0.29357,0.18792h0.34857h0.34857h0.34857h0.34857l0.34857,-0.00004l0.34857,-0.00025l0.34857,-0.00054l0.34856,-0.00231l0.34813,-0.01741l0.34272,-0.06355l0.33352,-0.10128l0.33236,-0.10507l0.31736,-0.14416l0.32701,-0.12067l0.27252,-0.21733l0.1413,-0.31864l0.10784,-0.33146l0.34688,0.03425l0.34854,0.00394l0.34839,0.01085l0.34796,0.02052l0.34616,0.04086l0.34468,0.05191l0.34345,0.0595l0.34857,-0.00001l0.34857,-0.00017l0.34857,-0.00079l0.34788,-0.02179l0.34788,-0.02179l0.26463,0.22687v0.34857l-0.00031,0.34856l-0.002,0.34857l-0.01245,0.34834l-0.02278,0.34782l-0.00021,0.34857l-0.0036,0.34855l-0.01246,0.34835l-0.04787,0.34526l-0.16409,0.30752l-0.17731,0.3001l-0.29283,0.18908l-0.32925,0.11443l-0.31904,0.14039l-0.34271,0.0636l-0.34847,0.00771l-0.34232,0.06568h-0.34857l-0.34857,0.00003l-0.34857,0.00005l-0.34857,0.00008l-0.34855,0.00251l-0.34851,0.0064l-0.34818,0.01634l-0.34456,0.05266l-0.34813,0.01727l-0.34813,0.01727h-0.34857l-0.34857,0.00002l-0.34857,0.00013l-0.34857,0.00029l-0.34855,0.00314l-0.34427,0.0545l-0.34428,0.05451h-0.34857l-0.34857,-0.00001l-0.34857,-0.00004l-0.34857,-0.00014l-0.34857,-0.00048l-0.34854,-0.00454l-0.3481,-0.01806l-0.34112,-0.07167l-0.3434,-0.05984l-0.34841,-0.01034l-0.34842,-0.01034l-0.34754,-0.02679l-0.34571,-0.04453l-0.34571,-0.04454l-0.33919,-0.0803l-0.33919,-0.0803l-0.33919,-0.0803l-0.32125,-0.13525l-0.32126,-0.13525l-0.27578,-0.21317l-0.06923,-0.34162l0.0377,-0.34652l0.03258,-0.34703v-0.34857v-0.34857v-0.34857v-0.34857l0.00003,-0.34857l0.00017,-0.34857l0.00084,-0.34857l0.00147,-0.34857l0.00793,-0.34847l0.04292,-0.34592l0.09675,-0.33487v-0.34857v-0.34857v-0.34857v-0.34856v-0.34857v-0.34857v-0.34857v-0.34857v-0.34857v-0.34856v-0.34857v-0.34857v-0.34857v-0.34857v-0.34857v-0.34856v-0.34857v-0.34857v-0.34857v-0.34857v-0.34857v-0.34856v-0.34857v-0.34857v-0.34857v-0.34857v-0.34857v-0.34857v-0.34857v-0.34857v-0.34857v-0.34857v-0.34857v-0.34857v-0.34857v-0.34857v-0.34857v-0.34857v-0.34857v-0.34857v-0.34857v-0.34857v-0.34857v-0.34857v-0.34857v-0.34857v-0.34857v-0.34857v-0.34857v-0.34857v-0.34857v-0.34857v-0.34857v-0.34857v-0.34857v-0.34857v-0.34857v-0.34857v-0.34857v-0.34857v-0.34857v-0.34857v-0.34857v-0.34857v-0.34857v-0.34857v-0.34857v-0.34857v-0.34857v-0.34857v-0.34857v-0.34857v-0.34857v-0.34857v-0.34857v-0.34857v-0.34857v-0.34857v-0.34857v-0.34857v-0.34857v-0.34857z" fill="#f0c27c" stroke="#000000" stroke-width="0" stroke-linecap="round"/><path d="M248.04511,41.02048l-0.09258,-0.32823l-0.14235,-0.3099l-0.09411,-0.32778l-0.17733,-0.2913l0.03,-0.3397l0.34102,0.00008l0.341,0.00476l0.34079,0.01302l0.3405,0.01896l0.33298,0.07369l0.33862,0.04045l0.34063,0.01651l0.33691,0.05281h0.34103l0.34103,-0.00002l0.34102,-0.00006l0.34103,-0.00035l0.34103,-0.00071l0.34102,-0.00118l0.34102,-0.00255l0.34096,-0.00671l0.34057,-0.01775l0.33538,-0.06184l0.34032,-0.02203l0.3367,-0.05416l-0.07032,0.3337l-0.09366,0.32792l-0.09366,0.32792l-0.08315,0.33074l-0.10169,0.32551l-0.16297,0.29957l-0.0572,0.3362l-0.0683,0.33412l-0.00003,0.34103l-0.00013,0.34103l-0.00036,0.34102l-0.00141,0.34103l-0.00371,0.341l-0.00738,0.34095l-0.04982,0.33737l-0.04982,0.33737l-0.04122,0.33853l-0.03252,0.33947l-0.00504,0.34099l-0.00859,0.34092l-0.03979,0.3387l-0.03581,0.33915l-0.0358,0.33915l-0.0252,0.3401l-0.01525,0.34069l-0.01525,0.34069v0.34103v0.34103v0.34103v0.34103l0.00005,0.34103l0.00019,0.34103l0.00214,0.34102l0.00662,0.34096l0.01481,0.34071l0.01481,0.34071l0.00244,0.34102l0.01626,0.34064l0.01626,0.34064l0.00048,0.34103l0.00111,0.34102l0.00288,0.34102l0.01475,0.34072l0.05573,0.33644l0.04387,0.33819l0.04387,0.33819l0.08144,0.33117l0.1113,0.32235l0.06424,0.33493l0.08483,0.33032l0.17236,0.29426l0.18127,0.28886l0.1611,0.30057l-0.02925,0.33977l-0.33587,0.05907l-0.32824,0.09251l-0.22825,0.25338l-0.33919,0.03543l-0.34102,0.00013l-0.34103,0.00042l-0.341,0.00447l-0.3395,0.03229l-0.34101,0.00325l-0.33908,0.03646l-0.33992,0.02749l-0.33129,0.08091l-0.33927,0.03454l-0.34103,-0.00122l-0.34095,-0.00727l-0.33918,-0.03547l-0.34045,-0.01988l-0.32957,-0.08772l-0.297,-0.1676l-0.29829,-0.1653v-0.34103v-0.34103v-0.34103v-0.34103v-0.34103v-0.34103v-0.34103v-0.34103l0.00001,-0.34103l0.00004,-0.34102l0.00609,-0.34098l0.00776,-0.34094l0.0228,-0.34027v-0.34103v-0.34103v-0.34103l-0.00003,-0.34103l-0.00036,-0.34103l-0.00036,-0.34103l-0.00081,-0.34103l-0.00081,-0.34103l-0.00081,-0.34102l-0.00081,-0.34103l-0.00545,-0.34098l-0.00544,-0.34098l-0.00545,-0.34099l-0.00545,-0.34099l-0.00545,-0.34098l-0.00545,-0.34099l0.0002,-0.34103l0.0002,-0.34103l0.00021,-0.34103l0.0002,-0.34103l0.0002,-0.34103l0.00204,-0.34102l0.00204,-0.34102l0.00204,-0.34102l0.00204,-0.34102l0.00204,-0.34102l0.01248,-0.3408l0.01248,-0.3408l0.01248,-0.3408l0.03425,-0.33931l0.03425,-0.3393l0.03425,-0.33931l0.01456,-0.34072l0.01455,-0.34072l0.01456,-0.34072l0.01455,-0.34072l0.04727,-0.33773v0.34102z" fill="#e2e9ee" stroke="#000000" stroke-width="0" stroke-linecap="round"/><path d="M254.24702,32.50557l0.3388,0.03899l-0.0016,0.34102l-0.03793,0.33892l-0.01048,0.34087l-0.04211,0.33842l-0.0546,0.33663l-0.00008,0.34103l-0.00043,0.34102l-0.00269,0.34102l-0.00269,0.34102l-0.00736,0.34095l-0.00736,0.34095l-0.02114,0.34038l-0.00747,0.34095l-0.07068,0.33363l-0.07067,0.33363l-0.17079,0.29519l-0.33955,-0.03162l-0.33065,-0.08348l-0.34007,-0.02546h-0.34103l-0.34103,-0.00013l-0.34103,-0.00034l-0.34102,-0.00055l-0.34103,-0.00148l-0.34101,-0.00297l-0.34097,-0.0063l-0.34012,-0.02496l-0.34102,-0.00009l-0.34103,-0.00009l-0.34103,-0.00025l-0.34103,-0.00025l-0.34102,-0.00135l-0.341,-0.00467l-0.341,-0.00467l-0.33516,-0.06296l0.0721,-0.33333l0.02994,-0.33972l0.00006,-0.34102l0.00125,-0.34102l0.00639,-0.34097l0.00639,-0.34097l0.02376,-0.3402l0.00286,-0.34102l0.00285,-0.34102l0.01466,-0.34071l0.01465,-0.34072l0.01465,-0.34072l0.02523,-0.34009l0.00999,-0.34088l0.02472,-0.34014l0.34102,0.00238l0.34051,0.01875l0.3366,0.05479l0.33933,0.03398h0.34102h0.34103h0.34102l0.34103,-0.00003l0.34102,-0.00003l0.34103,-0.00025l0.34102,-0.00025l0.34103,-0.00075l0.34102,-0.00076l0.34095,-0.00749l0.34095,-0.00749l0.33965,-0.03063l0.33965,-0.03063l0.33814,-0.04427l0.33553,-0.061z" fill="#e2e9ee" stroke="#000000" stroke-width="0" stroke-linecap="round"/><path d="M256.65122,32.89295l-0.00811,-0.34847l-0.04625,-0.34548l-0.05614,-0.34401l-0.12508,-0.32535l0.02303,-0.3478l0.33958,-0.07866l0.34654,-0.03755l0.3485,-0.00693l0.3471,-0.03183l0.34657,-0.03724l0.34857,-0.00003l0.34857,-0.00007l0.34857,-0.00044l0.34851,-0.00631l0.34643,-0.03847l0.34076,-0.07337l0.34857,-0.00053l0.34855,-0.00294l0.34856,-0.00295l0.34614,-0.04102l0.34703,-0.03269l0.3484,-0.01062l0.34747,-0.02771l0.34857,0.00042l0.34857,0.00147l0.34821,0.01557l0.34821,0.01557l0.34821,0.01557l0.34812,0.01778l0.3481,0.01777l0.34792,0.02115l0.34792,0.02114l0.34792,0.02115l0.34728,0.02986l0.34728,0.02986l0.34728,0.02986l0.34857,0.00002l0.34857,0.00002l0.34857,0.00007l0.34857,0.00007l0.34857,0.00008l0.34856,0.00037l0.34857,0.00039l0.34855,0.00251l0.34856,0.00251l0.34773,0.02406l0.34773,0.02406l0.34774,0.02406l0.34857,-0.00138l0.34855,-0.00269l0.34853,-0.0053l0.34853,-0.0053l0.34813,-0.01744l0.34813,-0.01744l0.34813,-0.01744l0.34813,-0.01744l0.34481,-0.05099l0.34481,-0.05099l0.34481,-0.05099l0.34634,-0.0393l0.34634,-0.03931l0.34634,-0.0393l0.34634,-0.03931l0.34634,-0.0393l0.34857,0.00025l0.34857,0.00024l0.34855,0.0038l0.34855,0.00382l0.34382,0.05733l0.34382,0.05733l0.34382,0.05733l0.34379,0.05751l0.32747,0.11942l0.32747,0.11942l0.33977,0.07782l0.33977,0.07782l0.33722,0.0882l0.28423,0.20177l0.28423,0.20177l0.30793,0.16333l0.30793,0.16333l0.27936,0.20847l0.28241,0.2043l0.28242,0.2043l0.27683,0.21182l0.23831,0.25438l0.17589,0.30093l0.0385,0.34643l0.0385,0.34643l0.03907,0.34637l0.03907,0.34637l-0.00062,0.34857l-0.0013,0.34856l-0.01294,0.34832l-0.02542,0.34765l-0.00178,0.34855l-0.00334,0.34855l-0.03292,0.347l0.00099,0.34857l0.01288,0.34832l0.03222,0.34707l0.03223,0.34707l-0.00015,0.34857l-0.00016,0.34857l-0.00098,0.34857l-0.00098,0.34856l-0.00098,0.34857l-0.01813,0.3481l-0.01812,0.3481v0.34857l-0.00033,0.34856l-0.00033,0.34857l-0.00033,0.34857l-0.00358,0.34855l-0.00358,0.34855l-0.01014,0.34842l-0.03282,0.34702l-0.03282,0.34702l-0.01745,0.34813l-0.01746,0.34813l-0.00042,0.34856l-0.00042,0.34857l-0.00119,0.34856l-0.00119,0.34857l-0.00413,0.34854l-0.00822,0.34846l-0.00821,0.34847l-0.03665,0.34663l-0.03664,0.34664l-0.02553,0.34763l-0.01784,0.3481l-0.01784,0.3481l-0.00074,0.34857l-0.01946,0.34802l-0.01946,0.34802l-0.00094,0.34856l-0.00094,0.34857l-0.00094,0.34857l-0.00634,0.3485l-0.00634,0.3485l-0.0228,0.34782l-0.0228,0.34782l-0.04063,0.3462l-0.04064,0.3462l-0.0403,0.34623l-0.34857,-0.00015l-0.34857,-0.00096l-0.34644,-0.03842h-0.34857l-0.34857,-0.00002l-0.34857,-0.00037l-0.34857,-0.00101l-0.34843,-0.00967l-0.34547,-0.04636l-0.3053,-0.16819l-0.21202,-0.27666l-0.16327,-0.30796l-0.19836,-0.28662l-0.17985,-0.29858l-0.2615,-0.23047l-0.30518,-0.16843l-0.32901,-0.11512l-0.31745,-0.14394l-0.31781,-0.14316l-0.22518,-0.26607l0.00006,-0.34857l0.00696,-0.3485l0.03253,-0.34704l0.00002,-0.34857l0.00006,-0.34857l0.00019,-0.34857l0.02196,-0.34788l0.02196,-0.34787l0.05713,-0.34385l0.05714,-0.34385l0.00231,-0.34856l0.00786,-0.34847l0.03368,-0.34694l0.00736,-0.34849l0.01981,-0.34801l0.01981,-0.34799l0.0549,-0.34422l0.0549,-0.34421l0.01211,-0.34835l0.01211,-0.34835l0.01211,-0.34835l-0.00004,-0.34857l-0.0008,-0.34857l-0.0008,-0.34857l-0.00346,-0.34855l-0.00346,-0.34855l-0.04138,-0.34611l-0.04138,-0.34611l-0.06142,-0.34311l-0.0736,-0.34071l-0.0736,-0.34071l-0.08866,-0.33711l-0.08866,-0.3371l-0.1082,-0.33135l-0.1082,-0.33135l-0.1082,-0.33134l-0.19372,-0.28978l-0.19372,-0.28979l-0.26957,-0.22098l-0.26957,-0.22098l-0.29471,-0.18613l-0.29358,-0.18792l-0.3226,-0.13202l-0.32859,-0.1163l-0.33855,-0.08297l-0.34626,-0.04l-0.34846,-0.00848l-0.34846,-0.00847l-0.34785,-0.02224l-0.34855,-0.00374l-0.34784,-0.02243l-0.34785,-0.02244l-0.34702,-0.03284l-0.34702,-0.03284l-0.34857,0.00168l-0.34856,0.00169l-0.34833,0.0127l-0.34833,0.0127l-0.34575,0.04421l-0.34575,0.0442h-0.34857h-0.34857l-0.34857,-0.00009l-0.34857,-0.00009l-0.34856,-0.0021l-0.34659,-0.03706l-0.34857,0.00056l-0.34856,0.00217l-0.34854,0.00437l-0.34662,0.03675l-0.34008,0.07643l-0.34009,0.07643l-0.337,0.08905l-0.337,0.08904l-0.34045,0.0748l-0.33243,0.10483l-0.33243,0.10483l-0.30814,0.16293l-0.323,0.13102l-0.26663,0.22452l-0.25215,0.24066l-0.19329,0.29007l-0.1906,0.29183l-0.12068,0.32701l-0.00238,0.34856l-0.00493,0.34853l-0.01481,0.34825l-0.01481,0.34825l0.00345,0.34855l0.05609,0.34403l0.0561,0.34402l-0.01715,0.34814l-0.03049,0.34722l-0.03049,0.34722l0.00466,0.34853l0.00467,0.34853l0.06479,0.34249l0.06479,0.34249l0.03915,0.34636l0.03915,0.34636l0.03393,0.34691l0.03394,0.34691l0.03393,0.34691l0.01833,0.34808l0.01833,0.34809l0.02336,0.34778l0.02336,0.34778l0.039,0.34638l0.03901,0.34638l0.02534,0.34765l0.02535,0.34765l0.10128,0.33353v0.34857v0.34857v0.34857v0.34856v0.34857v0.34857v0.34857v0.34857v0.34857v0.34856v0.34857v0.34857v0.34857v0.34857l-0.00002,0.34857l-0.00001,0.34857l-0.00011,0.34857l-0.00011,0.34857l-0.00048,0.34857l-0.00048,0.34857l-0.00048,0.34857l-0.05596,0.34404l-0.05596,0.34405l-0.05596,0.34405l-0.16182,0.30873l-0.34586,0.04336l-0.339,0.0811l-0.32828,0.11719l-0.34702,0.0328l-0.34492,0.0503l-0.34771,0.02434h-0.34857h-0.34857l-0.34857,0.00001l-0.34856,0.00006l-0.34857,0.00017l-0.34857,0.00051l-0.34637,0.03915l-0.34636,0.03915l-0.34857,-0.00009l-0.34857,-0.00009l-0.3485,-0.00611l-0.21905,-0.27114l0.0287,-0.34737l0.02502,-0.34767l0.05182,-0.3447l0.00059,-0.34856l0.00252,-0.34856l0.00252,-0.34856l0.00738,-0.34849l0.02063,-0.34795l0.04624,-0.34548l0.00342,-0.34855l0.01951,-0.34802l0.0195,-0.34802l0.00721,-0.34849l0.02881,-0.34737l0.00035,-0.34857l0.00155,-0.34856l0.00486,-0.34853l0.01719,-0.34814l0.01718,-0.34813l0.00714,-0.3485l0.00715,-0.34849l0.01816,-0.34809l0.01816,-0.3481l0.01767,-0.34812l0.05128,-0.34477l0.00342,-0.34855l0.00342,-0.34855l0.01514,-0.34823l0.01514,-0.34824l0.001,-0.34857l0.00101,-0.34856l0.02568,-0.34762l0.02568,-0.34762l0.02568,-0.34762l0.01214,-0.34835l0.01214,-0.34835l0.01214,-0.34835l-0.00562,-0.34852l-0.00562,-0.34852l-0.00562,-0.34853l-0.00562,-0.34852l-0.00562,-0.34853l-0.03155,-0.34713l-0.03155,-0.34713l-0.02136,-0.34792l-0.02136,-0.34791l-0.02136,-0.34791v-0.34857v-0.34857v-0.34856v-0.34857v-0.34857v-0.34857v-0.34857v-0.34856v-0.34857v-0.34857v-0.34857l-0.00009,-0.34857l-0.00011,-0.34857l-0.00009,-0.34857l-0.00009,-0.34857l-0.00011,-0.34857l-0.00068,-0.34857l-0.00068,-0.34857l-0.0039,-0.34855l-0.0039,-0.34854l-0.0039,-0.34855l-0.01787,-0.3481l-0.01787,-0.3481l0.04929,-0.34507z" fill="#98989a" stroke="#000000" stroke-width="0" stroke-linecap="round"/><path d="M355.14382,85.41635l-352.79218,3.75957" fill="none" stroke="#0086ff" stroke-width="1.5" stroke-linecap="round"/><path d="M141.12571,73.19736l-0.28736,-0.0001l-0.49717,0.03112l-0.38392,0.00559l-0.40815,0.03703l-0.50046,0.00002l-0.41303,0.03627l-0.35929,0.01463l-0.06874,0.07452l-0.07002,0.43251l-0.08824,0.2984l0.00124,0.2359l0.06827,0.33599l0.13428,0.4837l0.05299,0.3972l0.07323,0.04261l0.26606,-0.04065l0.26846,-0.06761l0.4297,-0.14338l0.31699,-0.11735l0.27566,-0.04068l0.32562,-0.07253l0.4929,-0.09859l0.27283,-0.05332l0.28319,-0.00122h0.44323l0.18226,0.01193l0.14478,-0.10901l0.09804,-0.20389l0.02869,-0.29311l0.03557,-0.24479l0.00098,-0.24948l-0.10178,-0.4363l-0.10887,-0.28935l-0.00788,-0.15488l-0.161,-0.00584l-0.09369,0.019c-0.0487,0.16568 -0.23874,0.16568 -0.23874,0.16568h-0.00732l-0.00058,0.00065l-0.21371,0.07322c0,0 -0.11093,0 -0.18501,-0.0739zM141.32711,72.69738l0.08493,-0.07996l0.45273,-0.10472l0.50385,0.1419l0.13987,0.36223l0.11275,0.30163l0.11984,0.52404l0.00098,0.3415l-0.0383,0.27232l-0.04518,0.37175l-0.19745,0.38709l-0.37232,0.26035l-0.33485,0.01193h-0.44323l-0.23392,-0.00122l-0.22404,0.04605l-0.48769,0.09752l-0.33923,0.07521l-0.24145,0.0332l-0.27399,0.10427l-0.45677,0.15211l-0.32252,0.08014l-0.47267,0.03322l-0.37001,-0.25288l-0.1226,-0.55996l-0.13337,-0.47982l-0.07948,-0.40274l0.00124,-0.35508l0.09683,-0.34392l0.11427,-0.55036l0.30062,-0.29484l0.52718,-0.05924l0.43377,-0.0376l0.49954,0.00002l0.40445,-0.03685l0.39097,-0.00591l0.50088,-0.03125l0.37716,-0.00012z" fill="#000000" stroke="none" stroke-width="0.5" stroke-linecap="butt"/><path d="M141.15862,73.15969c0.07408,0.0739 0.18929,0.07813 0.18929,0.07813l0.21533,-0.07132l0.00058,-0.00066l0.0074,0.0001c0,0 0.19036,0.0004 0.23906,-0.16528l0.0943,-0.01821l0.16231,0.00765l0.00951,0.15739l0.11208,0.29559l0.10486,0.4462l-0.00018,0.25525l-0.03545,0.25065l-0.02946,0.3002l-0.09929,0.20916l-0.146,0.11261l-0.18283,-0.0105l-0.44604,0.0057l-0.28675,0.00659l-0.28046,0.06132l-0.51812,0.10981l-0.34399,0.07168l-0.28726,0.03638l-0.32426,0.11274l-0.43526,0.13845l-0.27083,0.06499l-0.26804,0.03815l-0.07424,-0.04403l-0.05723,-0.4047l-0.13794,-0.49523l-0.06912,-0.34415l-0.00105,-0.24151l0.08945,-0.3057l0.07344,-0.44214l0.06976,-0.07656l0.36186,-0.01893l0.4184,-0.04297l0.51186,-0.00894l0.42433,-0.04286l0.40132,-0.00556l0.51465,-0.02445l0.294,0.00499z" fill="#000000" stroke="none" stroke-width="0.5" stroke-linecap="butt"/><path d="M156.0972,68.63438c0.06586,-0.03694 0.13573,-0.03694 0.13573,-0.03694l-0.0237,0.00746l0.26939,-0.06581l0.34218,-0.16005l0.3677,0.04345l0.38063,0.16723l0.37792,0.2551l0.11452,0.34022l0.07878,0.27892l0.03993,0.35143l0.03818,0.30926v0.43737l-0.0407,0.32586l-0.11507,0.462l-0.08439,0.28956l-0.21606,0.3873l-0.23252,0.23281l-0.28627,0.16613l-0.30353,0.16785l-0.31474,0.04251l-0.29206,0.10994l-0.50539,0.07909l-0.49912,0.07605l-0.38842,0.00073h-1.10809l-0.4754,-0.0236l-0.30709,-0.34646l-0.05181,-0.30267l-0.11427,-0.34982l-0.00323,-0.50039v-0.5l0.00484,-0.30748l0.20292,-0.50067l0.17953,-0.46677l0.25057,-0.53704l0.32768,-0.11749l0.29145,-0.15898l0.28267,-0.00515l0.44323,-0.14774l0.48328,-0.00323z" fill="#000000" stroke="none" stroke-width="0.5" stroke-linecap="butt"/><path d="M286.4355,59.91069l0.53801,0.47599l-0.02777,0.55465l-0.09519,0.61841l-0.04775,0.42977l-0.09352,0.60171l0.00071,0.36999l-0.04904,0.59168l-0.04787,0.44154l-0.07452,0.68691l-0.07216,0.71242l-0.09847,0.39711l-0.10913,0.57258l-0.12733,0.66553l-0.06939,0.67403l-0.0712,0.68838l-0.06988,0.68852l-0.06991,0.68885l-0.06977,0.6873l-0.06352,0.68788l-0.06368,0.68946l-0.06464,0.69865l-0.1016,0.69423l-0.09922,0.67641l-0.06354,0.66418l-0.00014,0.52797l-0.07009,0.53435l-0.41779,0.52523l-0.74045,-0.02358l-0.41434,-0.14039l-0.40971,0.00425l-0.65285,0.04684l-0.49175,0.04337l-0.35709,0.09814l-0.98301,0.01266l-0.11815,-0.69023v-2.14882v-0.42845l-0.00346,-0.45603l-0.00522,-0.68922l-0.01725,-0.67623l-0.06875,-0.68677l-0.01925,-0.49558l-0.02551,-0.67401l-0.09681,-0.67498l-0.04742,-0.47548l-0.0686,-0.68899l-0.06763,-0.68044l-0.10255,-0.68344l-0.07034,-0.65584l-0.07427,-0.69348l-0.0435,-0.55955l-0.05364,-0.69031l-0.05387,-0.69355l-0.04063,-0.69083l-0.04952,-0.62044l-0.05536,-0.69436l0.02832,-0.92009l0.61838,-0.23371l0.42431,-0.00259h3.31874l0.70472,0.00022l0.69302,0.0495l0.68064,0.09701c0,0 0.1811,0.02587 0.2612,0.17166z" fill="#00e4ff" stroke="none" stroke-width="0.5" stroke-linecap="butt"/><path d="M86.89465,56.94569l-0.2322,0.0409l-0.08247,0.01386l0.15132,0.0023zM85.48604,57.19926c-0.03288,-0.02661 -0.06363,-0.06406 -0.08957,-0.11592c-0.13997,-0.27994 0.13997,-0.41991 0.13997,-0.41991l0.35785,-0.17522l0.66092,-0.11831l0.56507,-0.09688l0.43821,-0.16202l0.67277,-0.04309l0.62658,-0.03122l0.63184,-0.03141l0.62877,-0.00457l0.62181,-0.01979l0.62564,-0.0199l0.46209,-0.01465l0.63093,-0.00004h2.89411l0.63242,0.00006l0.63188,0.02604l0.64943,0.02775l0.63786,0.12518l0.61407,0.12141l0.35731,0.07108l0.58245,0.05316l0.57597,0.14013l0.39216,0.37467l0.46987,0.53724l0.13717,0.5691l0.09025,0.63011l0.09443,0.61724l0.09575,0.62656l0.06432,0.63056l0.06262,0.61561l0.09092,0.61208l0.09376,0.63438l0.03227,0.64537l0.0115,0.63342l-0.00258,0.66537l-0.16916,0.5754l-0.30204,0.65148l-0.66195,-0.06649l-0.312,0.00108l-0.34627,0.05026l-0.39042,0.05499l-0.64814,0.00079l-0.58834,-0.00226l-0.58177,0.14508l-0.54672,0.08178l-0.3364,0.28177l-0.42538,0.01984l-0.57634,-0.00404l-0.61554,-0.20226l-0.59686,-0.08376l-0.65056,-0.17818l-0.13271,-0.78684l0.16931,-0.41676l0.09297,-0.41949l0.02883,-0.59889l0.02107,-0.4194l-0.0001,-0.61815v-1.89981l0.0322,-0.17746l-0.36111,-0.24294l-0.49927,-0.16078l-0.57786,0.00112l-0.33385,-0.0015l-0.37798,-0.00287l-0.56162,0.15898l-0.32766,0.09053l-0.51869,0.20784l-0.33587,0.11186l-0.34208,0.06983l-0.16755,0.22194l-0.13731,0.27918l-0.25458,0.56011l-0.22814,0.54252l-0.11505,0.61032l-0.22774,0.60093l-0.17164,0.56435l-0.07668,0.53202l0.15872,0.53983l0.13523,0.48544l0.25822,0.51481l0.33408,0.49324l0.16099,0.25127l0.43316,0.01401l0.59373,-0.0357l0.61453,-0.06706l0.50623,-0.05468l0.64293,-0.00047h1.25193l0.61011,0.00035l0.63797,0.06041l0.46706,0.04483l0.61111,-0.00035h0.42645l0.63704,0.0002l0.6338,0.04475l0.62317,0.03753l0.4019,0.02454l0.64539,0.09921l0.52088,0.1241l0.61642,0.25618l0.45484,0.53691l0.37102,0.45879l0.20491,0.60717l0.34535,0.51063l0.24773,0.61039l0.14554,0.3702l0.21518,0.27144l0.13925,0.41515l0.00404,0.6761l-0.00136,0.65509l-0.12009,0.64399l-0.09249,0.48918l-0.0511,0.46183l-0.05368,0.48204l-0.1042,0.62587l-0.10133,0.60684l-0.05922,0.61239l-0.05257,0.53297l-0.15444,0.62071l-0.11274,0.60604l-0.11649,0.62463l-0.15369,0.61653l-0.10894,0.42887l-0.29357,0.59132l-0.14357,0.28701l-0.30889,0.56583l-0.37076,0.55476l-0.55284,0.42968l-0.56497,0.3183l-0.28589,0.16024l-0.5834,0.26287l-0.48619,0.21874l-0.58346,0.24029l-0.34269,0.13969l-0.64027,0.13613l-0.36722,0.07662l-0.57062,0.20211l-0.59028,0.20833l-0.59512,0.21l-0.60168,0.19044l-0.4276,0.13524l-0.61069,0.16513l-0.60428,0.16331l-0.62263,0.16769l-0.63811,0.09271l-0.63181,0.09098l-0.63699,0.04129l-0.43785,0.02805l-0.63602,0.00016h-3.37317l-0.63704,-0.0002l-0.64388,-0.04557l-0.50903,-0.06407l-0.55088,-0.12928l-0.503,-0.37058l-0.42122,-0.48504l-0.27326,-0.64819l-0.14499,-0.63666l-0.14254,-0.63603l-0.03808,-0.65069l-0.02711,-0.47906l-0.00012,-0.63485v-0.62596l0.00039,-0.60537l0.0573,-0.56668l0.16447,-0.62014l0.12282,-0.60762l0.14072,-0.62302l0.15987,-0.55397l0.11024,-0.33046l0.20296,-0.50289l0.13531,-0.45525l0.56488,-0.14095h0.51796l0.37946,0.05361l0.63483,0.0459l0.54418,0.115l0.36153,0.0515l0.45843,0.11365l0.36748,0.72571l0.06385,0.35219l0.10189,0.40673l0.15287,0.56173l0.12319,0.34774l0.25488,0.24636l0.26155,0.20386l0.2202,-0.01493h0.5262l0.60875,0.00047l0.60501,-0.06731l0.32443,-0.03578l0.61302,-0.09202l0.42588,-0.06378l0.51146,-0.10229l0.41371,-0.10352l0.6168,-0.15403l0.56051,-0.09886l0.45755,-0.26914l0.40837,-0.4184l0.40767,-0.40831l0.24131,-0.48742l0.14386,-0.56579l0.08908,-0.34328l-0.25483,-0.38182l-0.44922,-0.35524l-0.27374,-0.2208l-0.51622,-0.31888l-0.53052,-0.32842l-0.54055,-0.32515l-0.48845,-0.3248l-0.50432,-0.2319l-0.41403,-0.05259l-0.57793,-0.19471l-0.40849,-0.00781l-0.46681,-0.00401l-0.4989,-0.16305l-0.31572,-0.05262l-0.44827,-0.15268l-0.57582,0.00405h-0.62596l-0.66057,-0.00191l-0.67381,-0.15136l-0.49594,-0.22531l-0.35401,-0.42413l-0.13681,-0.52443l-0.00228,-0.65797l-0.02473,-0.61924l-0.02509,-0.63102l-0.00142,-0.60395l-0.10935,-0.592l-0.1016,-0.64545l-0.00087,-0.59522l-0.03258,-0.61687l-0.02004,-0.38291l-0.00011,-0.53444l0.00015,-0.61626l-0.03872,-0.62262l-0.00875,-0.63347l-0.0053,-0.38818l-0.00001,-0.6281l0.00039,-0.35822l-0.05262,-0.5262l0.00008,-0.62435l-0.06732,-0.60502l-0.03792,-0.34762l0.01717,-0.48915l0.28451,-0.38081l0.52415,-0.42148l0.38068,-0.25859l0.56889,-0.28502z" fill="#00e4ff" stroke="none" stroke-width="0.5" stroke-linecap="butt"/><path d="M117.65837,67.50688l0.12942,0.10871l0.23887,0.37919l0.21738,0.215l0.29438,0.38196l-0.00257,0.54361l-0.29242,0.3501l-0.36334,0.50341l-0.43015,0.50112l-0.31266,0.27795l-0.50854,0.44515l-0.6177,0.26908l-0.4282,0.18991l-0.5691,0.19008l-0.77363,0.1772l-0.29982,-0.45195l-0.20471,-0.12424l-0.47302,-0.25893l-0.52554,-0.18129l-0.6356,-0.08136l-0.52665,-0.23689l-0.32046,-0.07964l-0.38812,-0.04229l-0.30491,0.07516l-0.50944,0.2113l-0.41324,0.35708l-0.28541,0.36706l-0.14514,0.27496l0.00838,0.34427v3.53575l-0.00006,0.6196l0.0215,0.52708l0.02119,0.58534l0.12652,0.46403l0.17224,0.09504l0.31417,0.12385l0.55173,0.22236l0.30747,0.0552l0.57398,0.16675l0.32651,-0.00303h0.32369l0.30424,0.0006l0.28456,-0.02877l0.23462,-0.13705l0.12728,-0.35795l0.09303,-0.37161l0.20942,-0.50728l0.17981,-0.6484l0.27804,-0.34462l0.32556,-0.32029l0.52175,-0.26482l0.56623,-0.20337l0.65521,-0.05307l0.54209,-0.00023l0.6761,0.00405l0.72659,0.27311l0.17794,0.43547l0.17287,0.62632l0.10568,0.63145l0.07272,0.40282l0.11498,0.64425l-0.00151,0.67001l-0.0657,0.63817l-0.07218,0.66634l-0.24537,0.60954l-0.21119,0.64981l-0.39883,0.43398l-0.51339,0.5181l-0.44545,0.08052l-0.47259,0.00055l-0.5761,0.04427l-0.62211,0.10028l-0.62483,0.01485l-0.57138,0.09601l-0.58294,0.19503l-0.51279,0.12512l-0.60819,0.14806l-0.59916,0.14572l-0.58931,0.18148l-0.63022,0.19209l-0.35772,0.0333l-0.62353,0.05503l-0.64408,0.05615l-0.45875,-0.01927l-0.62448,-0.02716l-0.59728,-0.02257l-0.6196,-0.02347l-0.63424,-0.00026l-0.57452,-0.05633l-0.63389,-0.29752l-0.40463,-0.6183l-0.16271,-0.59372l-0.00277,-0.59644v-2.10227l0.00033,-0.6402l0.03797,-0.41985l0.05608,-0.61291l0.01453,-0.61529l0.01494,-0.62579l0.01489,-0.62204l-0.00003,-0.62221v-1.25192l0.00008,-0.61885l-0.01758,-0.38489l-0.02807,-0.61886l-0.03776,-0.43349l-0.05477,-0.6309l-0.0216,-0.53787l-0.0252,-0.63172l0.00026,-0.57554l0.06061,-0.62863l0.25959,-0.67149l0.32466,-0.37748l0.62689,-0.22149l0.36993,-0.13872l0.42164,-0.1406l0.54622,-0.18193l0.56625,-0.22665l0.6131,-0.24329l0.52523,-0.08937l0.61896,-0.10316l0.58824,-0.09213l0.61842,-0.09685l0.63135,-0.09859l0.63732,-0.04626l0.62433,-0.04505l0.63038,-0.04542l0.63167,-0.02112l0.63083,-0.02098l0.51046,-0.00004h0.62596l0.6355,0.00015l0.49674,0.03018l0.63905,0.03934l0.74055,0.13442l0.48345,0.55809c0,0 0.16886,0.20639 0.00435,0.39401z" fill="#00e4ff" stroke="none" stroke-width="0.5" stroke-linecap="butt"/><path d="M120.37148,67.01977l-0.44756,-0.04467c0,0 -0.31143,-0.03115 -0.28028,-0.34258c0.03115,-0.31143 0.34257,-0.28028 0.34257,-0.28028l0.45507,0.04559l0.61123,0.03215l0.6194,0.00669l0.61423,0.00709l0.63769,0.07046l0.62213,0.06913l0.38586,0.04479l0.58756,-0.06722l0.61283,-0.06795l0.60762,-0.10479l0.60162,-0.10322l0.58821,-0.16316l0.60953,-0.1686l0.61594,-0.14343l0.45019,-0.10348l0.65347,-0.03239l0.35326,-0.01674l0.42361,-0.00009l0.50246,0.01214l0.4305,0.25566l0.43782,0.19761l0.41525,0.35889l0.40172,0.40448l0.36115,0.58468l0.25021,0.60071l0.18006,0.43639l0.15827,0.62954l0.08552,0.34876l0.029,0.65708l0.02038,0.49088l0.00006,0.63247l-0.00011,0.63423l-0.03572,0.65856l-0.13777,0.63654l-0.13338,0.61159l-0.07071,0.32417l-0.14096,0.59762l-0.08399,0.60565l-0.04952,0.35414l-0.12842,0.59324l-0.00589,0.43054l-0.04648,0.60562l-0.02817,0.62042l-0.01758,0.38489l0.00008,0.4553v0.62596l-0.00011,0.39957l-0.03655,0.66522l-0.15241,0.57934l-0.03776,0.58572l-0.00759,0.61068l-0.19147,0.5104l-0.77397,0.19262l-0.63781,0.09548l-0.6379,0.04124l-0.42171,0.02548l-0.57302,0.15793l-0.40243,0.10954l-0.60967,0.21372l-0.65104,0.09177l-0.54258,0.07511l-0.61319,0.10223l-0.62834,0.10452l-0.63891,0.06089l-0.62015,0.03957l-0.62508,0.07767l-0.63399,0.02482l-0.62626,0.04354l-0.46612,0.01271l-0.49396,-0.0238l-0.59466,-0.57662l-0.14599,-0.52322l-0.11958,-0.63832l-0.06654,-0.65028l-0.00534,-0.62918l-0.05016,-0.61247l-0.03912,-0.49251l-0.1513,-0.60417l-0.06633,-0.64372l-0.06834,-0.62093l-0.06967,-0.63567l-0.01382,-0.67661l0.13788,-0.63965l0.0991,-0.6106l0.13713,-0.36365l0.06592,-0.57955l0.05223,-0.60781l0.01018,-0.63426l0.09127,-0.48328l0.51172,-0.40408l0.55932,-0.11822l0.49325,-0.00152h1.66469l0.53084,0.00079l0.32368,0.04624l0.38071,0.00095l0.61497,0.13148l0.37229,0.00552l0.42124,0.00232l0.24178,-0.04693l0.28948,-0.36028l0.07532,-0.29456l0.00131,-0.32469l-0.15718,-0.46752l-0.19804,-0.31439l-0.19248,-0.11204l-0.23878,0.19198l-0.51653,0.25514l-0.59367,0.10823l-0.53679,-0.04625l-0.32682,-0.00016l-0.41617,-0.04624l-0.43093,0.00016l-0.46542,0.04125l-0.2743,0.07901l-0.37207,0.16497l-0.52992,0.20681l-0.33671,-0.62152l-0.11911,-0.45938l-0.28753,-0.35985l-0.26409,-0.3274l-0.12577,-0.42662l-0.00303,-0.66938v-1.31618l0.01344,-0.27923l-0.13865,-0.18496l-0.01052,-0.00055l-0.02884,0.07803c0,0 -0.09573,-0.01914 -0.16957,-0.08953z" fill="#00e4ff" stroke="none" stroke-width="0.5" stroke-linecap="butt"/><path d="M126.55542,75.28537l0.42459,-0.0101l0.51237,-0.00003l0.4669,0.03469l0.38181,0.49416l0.06512,0.64971l0.00028,0.52166l-0.00303,0.55206l-0.09248,0.32368l0.00068,0.31851l-0.15362,0.61977l-0.03095,0.39406l-0.12765,0.50158l-0.61167,0.19094l-0.58904,0.00187h-0.36993l-0.37793,-0.00235l-0.53946,0.13644l-0.5005,0.05049l-0.51104,-0.02589l-0.56273,-0.57803l-0.27851,-0.66757l-0.08489,-0.68176l-0.00118,-0.43997v-0.60136l0.00106,-0.52908l-0.08986,-0.53284l-0.0079,-0.52819l0.67418,-0.33564l0.55224,-0.00526l0.46241,-0.04624l0.31709,0.0004l0.34099,-0.04699l0.45562,0.04811l0.23298,0.13599c0,0 0.02126,0.02125 0.044,0.05718z" fill="#000000" stroke="none" stroke-width="0.5" stroke-linecap="butt"/><path d="M135.50249,66.94592l0.25038,-0.10331l0.57158,-0.00639h0.32369l0.28953,0.00186l0.39691,-0.08976l0.38013,-0.04784l0.60326,-0.09277l0.39011,-0.04166l0.41407,-0.13827l0.40247,-0.05184l0.43556,-0.04792l0.52595,-0.00048l0.57049,0.00039l0.53377,0.05818l0.52927,0.25867l0.50447,0.25281l0.55441,0.03126l0.54447,-0.00017h0.32369l0.48243,0.0071l0.53018,0.23667l0.31984,0.04515l0.59619,0.25415l0.53003,0.45734l0.47136,0.59328l0.01869,0.47648l-0.00039,0.38552l-0.05124,0.50468l-0.13572,0.48805l-0.24044,0.55591l-0.06161,0.36633l-0.26642,0.33755l-0.28806,0.36614l-0.49356,0.03624l-0.34577,-0.0486l-0.31573,-0.0452l-0.52129,-0.04798l-0.43444,-0.09901l-0.58994,-0.03601l-0.36016,0.00015l-0.35262,-0.00048l-0.38817,0.04343l-0.38208,0.04437l-0.06447,0.12758l-0.03251,0.27726l-0.09248,0.32369l-0.04774,0.33032l-0.13727,0.40973l-0.04087,0.42809l-0.04508,0.44686l0.00038,0.5539v3.47491l-0.00003,0.63043l-0.01058,0.37149l-0.01788,0.62571l-0.01775,0.61496l0.0209,0.51641l0.02528,0.63174l0.00006,0.63223l-0.00404,0.67611l-0.24518,0.69474l-0.40894,0.28519l-0.5482,0.10547l-0.40134,0.13453l-0.37277,0.10344l-0.40133,0.00279l-0.56302,0.04242l-0.36779,0.09213l-0.53758,0.04977l-0.35054,0.02064l-0.62187,0.03653l-0.62501,0.04885l-0.74786,0.01637l-0.5526,-0.49014l-0.02797,-0.49926l0.00039,-0.43176l0.04625,-0.46241l-0.00011,-0.36735l0.04624,-0.55489l-0.00028,-0.47082l0.00007,-0.63222l0.02141,-0.53682l0.02755,-0.65458l0.13805,-0.59578l0.00141,-0.57664l0.04516,-0.63467l0.04433,-0.62029l0.01948,-0.43185l0.02806,-0.62022l0.00785,-0.62804l0.03731,-0.63541l0.04281,-0.53535l0.09248,-1.15602l0.04918,-0.6115l-0.00025,-0.35404v-0.62596l0.00033,-0.61178l-0.03484,-0.37976l-0.05764,-0.63754l-0.00033,-0.49802l0.00028,-0.61295l-0.03969,-0.473l-0.02996,-0.39508c-0.03798,-0.01511 -0.07719,-0.04044 -0.1164,-0.07964c-0.22132,-0.22132 0,-0.44262 0,-0.44262l0.11227,-0.09667l0.08679,-0.04945c0.01152,-0.03535 0.10532,-0.29106 0.38567,-0.21094c0.00576,0.00165 0.01139,0.00336 0.01687,0.00517z" fill="#00e4ff" stroke="none" stroke-width="0.5" stroke-linecap="butt"/><path d="M152.1483,76.1585l0.02619,0.14647v0.97107l-0.00039,0.40058l0.04587,0.4562l0.02215,0.57368l0.11097,0.5876l0.06023,0.32836l0.2378,0.22443l0.32488,0.18357l0.2922,0.03137l0.30424,-0.0006l0.42418,0.00234l0.35451,-0.09019l0.5005,-0.05049l0.33928,-0.00039h0.55489l0.31979,0.00405l0.37895,-0.09248l0.00859,-0.15064l-0.00196,-0.30609l0.09416,-0.5704l0.05043,-0.48655l0.21446,-0.56263l0.47215,-0.22889l0.40849,-0.05412l0.48557,-0.075l0.64022,-0.11178l0.33798,-0.00093l0.6109,-0.04354l0.57089,0.25268l0.11211,0.47548l0.04662,0.32641l0.04339,0.35243l0.11492,0.43789l0.15883,0.60895l0.08702,0.36539l0.14943,0.63117l0.0398,0.43774l0.05643,0.63735l-0.00076,0.66567l-0.10559,0.6222l-0.24743,0.52271l-0.54814,0.53711l-0.51857,0.12737l-0.54268,0.04966l-0.33787,0.00033h-2.45079l-0.35954,-0.00017l-0.58754,0.03884l-0.62261,0.10398l-0.63054,0.0209l-0.60909,0.08272l-0.62714,0.06596l-0.62969,0.06612l-0.62642,0.03688l-0.34228,0.03265l-0.63796,0.0604l-0.52351,0.00035h-0.32369l-0.60035,-0.00332l-0.66012,-0.25135l-0.11677,-0.75088l-0.04526,-0.63539l-0.00416,-0.33054l-0.00746,-0.61914l-0.03478,-0.6269l-0.00012,-0.42485l0.00234,-0.47041l-0.09248,-0.36994l-0.00234,-0.52206v-0.62596l0.00047,-0.4451l-0.04624,-0.41618l-0.00047,-0.5722v-0.9l0.00173,-0.59317l-0.10182,-0.47204l-0.06207,-0.6389l-0.06858,-0.63731l-0.00044,-0.6462l0.00928,-0.43233l0.01397,-0.63833l0.06446,-0.63522l0.06288,-0.61665l0.04321,-0.65579l0.19504,-0.63401l0.19072,-0.61145l0.26727,-0.63318l0.4373,-0.52974l0.38838,-0.38853l0.34336,-0.2942l0.35524,-0.25294l0.45945,-0.22144l0.52131,-0.0081l0.55489,-0.04624l0.44458,0.00125l0.42737,-0.087l0.6316,-0.14372l0.40535,-0.00202h0.41618l0.30425,0.0006l0.36966,-0.04622l0.38729,-0.00123l0.61506,-0.00083l0.62464,-0.0446l0.47384,-0.0002l0.32214,0.00057l0.63684,0.00129l0.63709,0.04532l0.58345,0.04978l0.48417,0.1251l0.5969,0.15585l0.60817,0.17097l0.18714,0.55821l-0.00268,0.35233l0.1296,0.33272l0.10429,0.42474l0.00234,0.50065v0.83234l-0.00033,0.35575l0.04444,0.48652l0.04757,0.33782l-0.00012,0.5547l-0.09388,0.61526l-0.04511,0.49784l-0.04533,0.54074l-0.00208,0.53388l-0.24179,0.75091l-0.55806,0.12436l-0.42048,-0.00547l-0.52419,0.22343l-0.3574,0.07484l-0.61611,0.12645l-0.61974,0.11494l-0.64486,0.11258l-0.37241,0.00119h-2.40455l-0.61144,-0.00034l-0.46063,0.04322l-0.60546,0.05585l-0.59912,0.12662z" fill="#00e4ff" stroke="none" stroke-width="0.5" stroke-linecap="butt"/><path d="M174.80322,62.33084c-0.00439,-0.20423 0.20774,-0.28377 0.20774,-0.28377l0.3632,-0.13611l0.34749,-0.14717l0.46607,-0.0936l0.43852,-0.17679l0.42715,-0.15484l0.51826,-0.00502h0.55489l0.53594,0.02383l0.37033,0.33697l0.26525,0.23473l0.41617,0.13873l0.37151,0.31077l0.30822,0.26105l0.22736,0.33757l0.17052,0.41187l0.00113,0.41987l-0.04519,0.66064l-0.09104,0.35962l0.00235,0.28545v1.10979l-0.00033,0.40199l0.04624,0.50866v0.46241l0.04624,0.50866v0.49078l-0.04985,0.54395l-0.15027,0.64888l-0.14579,0.34309l-0.12379,0.32189l-0.03977,0.51285l-0.0383,0.4405l-0.06639,0.6869l-0.23627,0.4152l0.15833,0.06757l0.20995,0.21802l0.39977,0.11169l0.34802,0.5368l0.01213,0.40996l-0.00152,0.44701l-0.09654,0.49039l-0.0939,0.51123l-0.03942,0.59639l0.00018,0.31327v0.41617l-0.00277,0.28214l-0.01398,0.05372l0.29247,-0.19371l0.5264,-0.30595l0.24605,-0.20604l0.28137,-0.28097l0.45072,-0.35015l0.44275,-0.24694l0.44404,-0.21274l0.70386,0.01694l0.35702,0.33843l0.429,0.51778l0.24719,0.48979l0.23273,0.44239l0.11495,0.63636l0.14477,0.39659l-0.03821,0.5845l-0.5187,0.33704l-0.309,0.22133l-0.31137,0.22193l-0.34021,0.2969l-0.21284,0.2569l-0.20386,0.2543l-0.33948,0.37624l0.01105,0.16079l0.23217,0.11186l0.3387,0.09964l0.54448,0.41961l0.47262,0.42139l0.48503,0.41839l0.41726,0.45008l0.47611,0.34751l0.40055,0.3611l-0.23356,0.63326l-0.40213,0.39986l-0.36746,0.16349l-0.46241,0.2312l-0.3471,0.14845l-0.5292,0.16499l-0.6062,0.21316l-0.29628,0.0572l-0.5233,0.2437l-0.41816,0.23221l-0.55378,0.21786l-0.47714,-0.17776l-0.36848,-0.25368l-0.4827,-0.44158l-0.21706,-0.21846l-0.21831,-0.17243l-0.40019,0.01056l-0.62194,-0.04155l-0.60311,0.00453l-0.62572,0.04168l-0.31992,-0.00015l-0.47791,0.04332l-0.45932,0.09202l-0.42995,0.04806l-0.44531,0.0485l-0.62192,0.04437l-0.38105,0.04713l-0.52374,-0.00352l-0.41172,0.13898l-0.66727,0.01314l-0.58894,0.03336l-0.37903,0.09374l-0.47173,0.00186l-0.44462,-0.04913l-0.64221,-0.12156l-0.59048,-0.28883l-0.62502,-0.25919l-0.55901,-0.58383l-0.02382,-0.4897v-0.55489v-0.37052l0.00187,-0.45033l0.04458,-0.62378l-0.0002,-0.45125v-1.94214l0.00039,-0.61672l0.04624,-0.46241l0.00195,-0.43883l0.14254,-0.57847l0.09033,-0.58923l0.08481,-0.49563l0.21588,-0.64577l0.19474,-0.34363l0.20017,-0.39537l0.31841,-0.37341l0.3259,-0.27031l0.41614,-0.20992l0.39701,-0.14907l0.36019,-0.10211l0.46183,-0.05435l0.5125,-0.14428l0.26746,-0.23338l0.0919,-0.05052l-0.05657,0.02867l-0.49443,0.05519l-0.47439,0.04708l-0.33928,0.00038h-0.50866l-0.48459,-0.00079l-0.35846,-0.05067l-0.61495,-0.14104l-0.63565,-0.26281l-0.35923,-0.25414l-0.41497,-0.32279l-0.49419,-0.35059l-0.33429,-0.44447l-0.16746,-0.44276l-0.05402,-0.36607l-0.04795,-0.57703l-0.00027,-0.56789v-0.46241l0.00023,-0.35792l-0.04624,-0.60113l-0.00023,-0.47443l0.00087,-0.57818l0.09434,-0.63473l0.09286,-0.61904l0.10104,-0.65721l0.1399,-0.33853l0.26512,-0.62001l0.32237,-0.38046l0.3908,-0.32849l0.64502,-0.21896l0.55233,-0.05221l0.57228,-0.02205l0.56629,-0.10583l0.37297,-0.13955l0.56835,-0.09577l0.53103,-0.14519l0.64956,-0.01947l0.61854,-0.0729l0.58367,-0.02553z" fill="#00e4ff" stroke="none" stroke-width="0.5" stroke-linecap="butt"/><path d="M176.69712,75.24531c0.00212,-0.12899 0.09833,-0.22519 0.09833,-0.22519l0.44116,-0.08535l0.37978,0.2977l0.034,0.52044l0.09021,0.30969l0.04868,0.52387l0.09409,0.52275l0.0002,0.32597l0.09126,0.54295l0.04694,0.60748l0.04506,0.3598l0.04983,0.34867l0.09088,0.64175l-0.00759,0.60275l-0.24116,0.4884l-0.51551,0.45475l-0.58849,0.16876l-0.49461,0.08895l-0.35323,0.13361l-0.44928,0.13396l-0.42033,0.20263l-0.65667,0.2301l-0.54149,-0.00378l-0.58814,-0.29313l-0.32215,-0.39841l-0.33481,-0.63267l-0.05792,-0.56739l-0.04735,-0.43031l-0.00048,-0.43348v-0.50801l-0.00142,-0.38178l-0.04462,-0.62502l0.00283,-0.29144l-0.09248,-0.32368l-0.00046,-0.51207l-0.09207,-0.35779l0.10325,-0.83752l0.56728,-0.27825l0.67406,-0.12659l0.37408,-0.00133l0.56677,0.00565l0.46241,-0.18496l0.49942,-0.00485l0.32368,-0.04625l0.61532,0.00155z" fill="#000000" stroke="none" stroke-width="0.5" stroke-linecap="butt"/><path d="M205.18726,60.84998l0.04319,0.00735l0.33227,0.08548l0.33168,-0.00234l0.29479,0.00134l0.34569,-0.06408l0.53981,-0.23507l0.57004,-0.25672l0.58814,-0.25697l0.45926,-0.15182l0.41972,-0.0534l0.62058,-0.0006l0.545,0.09166l0.09046,0.61864l-0.09844,0.55904l-0.18139,0.57057l0.00055,0.41236l-0.09248,0.32368l0.00132,0.49778l-0.09248,0.43758l0.00169,0.59342v0.32368l-0.00001,0.55148l0.00878,0.44566l0.10867,0.59839l0.08559,0.62681l0.08218,0.60505l0.14552,0.61179l0.07652,0.64642l0.04746,0.64084l0.00021,0.63905l-0.00352,0.36911l-0.00615,0.63364l-0.03671,0.62338l0.00014,0.56712v1.06355l-0.00001,0.62341l0.00629,0.38607l0.00994,0.61712l0.0448,0.61726l0.0386,0.62645l0.03893,0.6344l-0.00009,0.64759l-0.04517,0.59014l-0.05049,0.64618l-0.08943,0.38485l-0.07932,0.10426l0.31141,-0.14942l0.47508,-0.09453l0.56624,-0.04764l0.3829,-0.04732l0.37643,0.00505l0.46241,-0.18496l0.50215,-0.00504l0.36473,-0.04587l0.58173,-0.01943l0.61923,-0.07295l0.32826,-0.01628l0.63287,-0.03095l0.63363,-0.0001h0.62597h0.62457l0.4217,-0.00307l0.60383,-0.08692l0.41443,-0.04602l0.54407,-0.07916l0.81081,0.19825l0.28648,0.67786l0.04936,0.52459l0.08925,0.35353l0.10199,0.51269l0.04327,0.63965l0.05007,0.49797l0.01722,0.62475l0.06468,0.60231l0.09938,0.63492l-0.00953,0.70594l-0.33037,0.51405l-0.64356,0.04149l-0.32368,0.04624l-0.47874,0.00074l-0.37674,0.01387l-0.62698,0.07806l-0.57434,0.0006l-0.39672,-0.0006l-0.3558,0.04505l-0.46219,0.03763l-0.4939,0.22691l-0.54912,0.10579l-0.68175,0.00029l-0.40453,-0.06752l-0.60656,-0.10309l-0.59716,-0.05991l-0.38484,-0.00085l-1.25192,-0.00396l-0.60057,-0.00293l-0.59283,0.09624l-0.63206,0.10118l-0.63855,0.04436l-0.61691,0.04245l-0.31794,0.03759l-0.62166,0.0733l-0.63995,0.07492l-0.64431,0.00053h-0.62597l-0.5151,-0.00446l-0.52641,-0.24152l-0.05756,-0.80685v-0.36946l-0.00152,-0.56794l-0.04435,-0.62001l-0.01886,-0.6185l-0.07346,-0.62649l-0.00054,-0.52697v-4.43921l0.0001,-0.3569l0.00021,-0.62974l0.01538,-0.62955l0.01533,-0.62578l0.01524,-0.62194l-0.00002,-0.62213v-1.25192v-0.62583l-0.00034,-0.38148l-0.00168,-1.87789l-0.00054,-0.62247l-0.0145,-0.62229l-0.01454,-0.62579l-0.01445,-0.62232l-0.02476,-0.54378l-0.08537,-1.87595l-0.02869,-0.63242l-0.00007,-0.63307l0.00006,-0.63247l0.02038,-0.49088l0.02606,-0.62542c0,0 0.01303,-0.31271 0.32574,-0.29969c0.23676,0.00986 0.28679,0.19152 0.29713,0.27918z" fill="#00e4ff" stroke="none" stroke-width="0.5" stroke-linecap="butt"/><path d="M222.97905,68.54743l-0.19305,0.11624c0,0 -0.27174,0.15527 -0.42703,-0.11647c-0.15527,-0.27174 0.11647,-0.42704 0.11647,-0.42704l0.36054,-0.19853l0.28102,-0.03513c0.04594,-0.03891 0.11136,-0.0666 0.20445,-0.0666c0.06511,0 0.11669,0.01354 0.15753,0.035l0.45058,-0.02263l0.60866,-0.03574l0.60389,-0.09399l0.34781,-0.05357l0.63337,-0.03755l0.50672,-0.05017l0.34974,-0.00019l0.57634,-0.0409l0.46877,-0.0855l0.62757,-0.06987l0.43117,-0.06212l0.41118,-0.00083l0.38626,0.00332l0.42206,-0.12794l0.66831,-0.04372l0.35408,-0.00328l0.56296,-0.08648l0.54878,0.05572l0.29951,0.66732l0.04506,0.66965l0.03736,0.63349l0.00471,0.63405l0.00454,0.62689l0.00077,0.6269l0.0005,0.41268v0.62615v0.94975l-0.00009,0.46073l-0.03041,0.639l-0.05551,0.62985l-0.05503,0.62353l-0.03373,0.38091l-0.08585,0.59983l-0.03583,0.6137l-0.04406,0.62621l-0.04341,0.61444l-0.00385,0.6213l-0.02559,0.63079l-0.01842,0.45167l-0.00054,0.5743l-0.07808,0.62726l-0.02375,0.61217l-0.02439,0.62003l-0.00289,0.63087l-0.04372,0.61993l-0.13408,0.82592l-0.66695,0.11283l-0.61266,-0.08682l-0.49585,0.00079l-0.45846,-0.00043l-0.59937,0.06345l-0.60414,0.09041l-0.62401,0.12689l-0.65181,0.05234l-0.58844,0.01132l-0.62718,-0.13251l-0.59104,-0.07404l-0.48185,-0.00793l-0.44167,-0.005l-0.49382,-0.20037l-0.31452,-0.54713l-0.01001,-0.55337v-2.84923l0.00014,-0.61358l0.03678,-0.62576l0.00334,-0.61764l0.00343,-0.53557l0.04312,-0.38766l-0.00047,-0.37122v-1.03608l0.03038,-0.76046l0.52324,-0.44104l0.53643,-0.01804l0.49432,0.0006l0.62479,0.0779l0.35234,0.00786l0.35471,0.00025l0.53745,0.04459l0.3324,0.04209l0.36908,-0.0006h0.38853l0.31452,0.00153l0.3697,-0.07377l0.14182,-0.01458l-0.01655,-0.28564l-0.04142,-0.31704l-0.04266,-0.47048l-0.08774,-0.57533l0.00095,-0.42141l-0.08202,-0.36073l-0.09126,-0.50872l0.02621,-0.3316l-0.23221,-0.1885l-0.22361,-0.01535l-0.48767,0.03621l-0.46636,0.17072l-0.63757,0.08642l-0.3502,0.08495l-0.30497,0.08706l-0.36079,0.07792l-0.22877,0.09905l-0.19816,0.36819l-0.5159,0.15417l-0.57191,-0.04345l-0.40141,-0.04187l-0.37295,0.04269l-0.62715,-0.09119l-0.09144,-0.55466l-0.04317,-0.56121l0.00026,-0.54736l0.04692,-0.42252l0.08398,-0.37139l-0.00035,-0.36671l-0.07905,-0.3888l-0.09381,-0.40489l0.18367,-0.4034z" fill="#00e4ff" stroke="none" stroke-width="0.5" stroke-linecap="butt"/><path d="M229.67301,78.00011c0.04398,-0.065 0.12046,-0.12153 0.25347,-0.12153c0.31298,0 0.31298,0.31298 0.31298,0.31298v1.07926l-0.00023,0.61639l-0.04317,0.56121v0.47487l-0.04698,0.59933l-0.20266,0.54192l-0.59716,0.06064l-0.46489,-0.18098l-0.35586,-0.07814l-0.46198,-0.08061l-0.56561,0.08438l-0.5575,0.04512l-0.61744,-0.14739l-0.07977,-0.5541v-0.94974l0.00047,-0.45757l-0.04174,-0.37127l-0.04372,-0.39381l0.00073,-0.75265l0.49178,-0.27044l0.47697,-0.05136l0.40407,-0.04442l0.34108,-0.00048h0.99292l0.76593,0.03304z" fill="#000000" stroke="none" stroke-width="0.5" stroke-linecap="butt"/><path d="M234.30085,71.55212c-0.09564,-0.00659 -0.2382,-0.05095 -0.27793,-0.24957c-0.06138,-0.30691 0.24553,-0.36828 0.24553,-0.36828l0.19125,-0.03721l0.3171,-0.0902l0.51783,-0.09325l0.45981,-0.00126l0.27346,0.00837l0.50431,-0.25545l0.56578,-0.05507l0.35954,0.04373l0.41226,-0.0006l0.79833,0.06732l0.20337,0.5671l0.04517,0.67051l-0.03429,0.53929l-0.19081,0.61644l-0.07984,0.43089l-0.10676,0.61273l-0.1046,0.64426l-0.21111,0.59032l-0.09391,0.5645l0.00107,0.40588v0.71232l-0.00012,0.61711l0.01929,0.33831l0.03546,0.626l0.02749,0.5907l0.06926,0.23987l0.07683,0.21468l0.18776,0.01984l0.35029,-0.00234h0.51805l0.54563,0.00039l0.4317,-0.04317l0.5768,-0.00038h0.60438l0.38859,0.01213l0.213,-0.13895l0.16031,-0.24905l0.13926,-0.53452l0.03827,-0.34807l-0.00047,-0.4144v-1.79156l0.00006,-0.63247l0.01731,-0.41718l0.02585,-0.6189l-0.00006,-0.46836l0.00015,-0.57089l0.02401,-0.39019l0.0406,-0.64489l0.11875,-0.61358l0.03528,-0.62928l0.09592,-0.43338l0.20916,-0.55539l0.3762,-0.38278l0.41183,-0.22645l0.46886,-0.01049h1.51096l0.44588,0.00033l0.58047,0.06667l0.42269,0.37226l0.02916,0.54887l0.04051,0.40369l0.08717,0.55569l-0.17727,0.41629l0.00682,0.49623v0.90657v0.6039l0.00141,0.47378l0.01868,0.60974l0.06581,0.62735l0.00042,0.4481v0.73389l-0.00085,0.45188l0.07841,0.52352l0.09438,0.64364l-0.00492,0.5866l-0.00639,0.63219l-0.03121,0.6236l0.0001,0.42389v1.76998l-0.01343,0.5224l-0.34676,0.52826l-0.47836,0.27376l-0.62351,0.28909l-0.69141,0.08052l-0.35017,-0.00278l-0.62906,-0.00602l-0.63913,-0.019l-0.62157,-0.05961l-0.62921,-0.01248l-0.61862,-0.07295l-0.4161,0.00052l-0.52074,-0.00947l-0.54613,-0.08135l-0.32629,0.1688l-0.61252,0.00838h-0.62596h-0.62596h-0.6234l-0.61765,0.01008l-0.62767,0.03297l-0.5413,-0.00025l-0.46234,-0.04694l-0.77277,-0.34643l-0.05573,-0.65315v-2.28801l0.00033,-0.37435l-0.04297,-0.47087l-0.0115,-0.44229l-0.01605,-0.62576l-0.0161,-0.6283l-0.00312,-0.33221l-0.00542,-0.6123l-0.05928,-0.60945l-0.06138,-0.6381l-0.00036,-0.64105v-2.37436l0.00023,-0.63797l0.04551,-0.58926z" fill="#00e4ff" stroke="none" stroke-width="0.5" stroke-linecap="butt"/><path d="M261.45529,68.16983l0.05434,-0.00647l0.40732,0.27081l0.0957,0.5137l-0.0532,0.55892l-0.17268,0.38854l-0.02088,0.27591l-0.05932,0.64453l-0.13727,0.59651l-0.23404,0.54716l-0.56799,0.11227l-0.38198,-0.00044l-0.53328,0.08294l-0.32968,0.05996l-0.64374,0.11577l-0.38463,0.00106l-0.64251,-0.04687l-0.33431,-0.08478l-0.42902,0.00225l-0.39064,0.01759l-0.60077,0.15078l-0.50098,0.04648l-0.55156,0.04221l-0.57317,0.08749l-0.5299,0.00068l-0.52309,0.03936l-0.32148,0.01318l0.06629,0.23909l-0.00038,0.41638l0.04402,0.44429l0.04225,0.63364l0.02075,0.5209l0.04868,0.61542l0.0594,0.62362l0.03494,0.45988l0.04741,0.62416l0.04808,0.63601v0.62581l-0.00186,0.41111l0.16393,0.07712l0.26809,-0.01026l0.36927,-0.08362l0.36519,-0.04596l0.47487,-0.04317l0.3595,-0.04437l0.3849,0.00648l0.39857,-0.1886l0.30337,-0.17328l0.37901,-0.16764l0.27208,-0.14754l0.0202,-0.10894l-0.07523,-0.03843l-0.26931,0.01367l-0.28459,0.112l-0.32448,0.1375l-0.47205,0.09922l-0.69252,-0.00019l-0.569,-0.16965l-0.18167,-0.48658l-0.00303,-0.38877v-0.43105l-0.00134,-0.35792l-0.04166,-0.62523l-0.00018,-0.35577l0.01494,-0.52722l0.32333,-0.45495l0.45002,-0.1822l0.45298,-0.09161l0.38854,-0.08635l0.4655,-0.09156l0.56394,-0.00026l0.43102,-0.07922l0.37685,-0.11048l0.6408,-0.19652l0.46148,-0.00253l0.42356,0.0695l0.58187,0.14763l0.33294,-0.00128l0.63544,0.11996l0.47451,0.46944l0.11631,0.4186l0.08173,0.28662l0.1832,0.51709l0.00436,0.59992l0.04314,0.43122l0.00175,0.50302l0.03718,0.58177l0.08541,0.29709l0.04753,0.46292l0.0435,0.56511l0.05341,0.6223l0.0504,0.59893l0.15374,0.62053l0.00203,0.44095l-0.0548,0.54633l-0.17417,0.35043l-0.05167,0.36975l-0.40792,0.57367l-0.3162,0.26389l-0.43216,0.21211l-0.5784,0.05385l-0.59435,0.04223l-0.31641,0.04715l-0.63668,0.12588l-0.63199,0.0015l-0.4891,0.01008l-0.63083,0.03306l-0.57047,-0.00901l-0.65114,-0.03558l-0.62189,-0.11488l-0.59225,-0.05657l-0.44597,0.00723l-0.60986,0.00881l-0.60334,0.07172l-0.63879,0.08449l-0.43085,0.00069l-0.68734,-0.00607l-0.59602,-0.24251l-0.58686,-0.34874l-0.34184,-0.46382l-0.06511,-0.49846l0.04335,-0.57853l-0.00023,-0.33335v-1.12242l0.00021,-0.57285l0.03993,-0.53874l0.04582,-0.61141l-0.0048,-0.60539l-0.03427,-0.60399l-0.08875,-0.62205l-0.01815,-0.42632l-0.02595,-0.6231l-0.02895,-0.51268l-0.03529,-0.62496l-0.03392,-0.60842l-0.09902,-0.60127l-0.10434,-0.64295l-0.00102,-0.65136v-0.62596l0.00234,-0.66421l0.14973,-0.59649l0.20726,-0.36579l0.27722,-0.32559l0.31852,-0.35585l0.58479,-0.22079l0.5095,-0.04888l0.27997,-0.02892l0.30721,-0.17431l0.39198,-0.04282l0.63754,-0.05764l0.5754,-0.00033h0.4317l0.37967,0.00012l0.38004,-0.02168l0.61308,-0.03454l0.62123,-0.08294l0.64584,-0.03357l0.63394,-0.0002l0.61951,-0.00042l0.61906,-0.02574l0.62176,-0.02576l0.60035,-0.03837l0.61099,-0.12238l0.52076,-0.04354l0.45992,-0.084c0,0 0.17639,-0.03207 0.28644,0.08584z" fill="#00e4ff" stroke="none" stroke-width="0.5" stroke-linecap="butt"/><path d="M264.40505,62.33791l0.16125,0.00048l0.50253,-0.08467l0.45176,-0.04518l0.57152,-0.02095l0.63124,-0.0229l0.61302,0.0005l0.38932,-0.04716l0.60611,-0.07217l0.70191,-0.1379l0.6597,0.36194l0.04675,0.50991l-0.00071,0.4097l-0.06062,0.44965l-0.11268,0.59423l0.00134,0.46749l-0.00032,0.64015l-0.04316,0.47492l0.00003,0.34345l-0.04307,0.62443l-0.00009,0.60219l0.04317,0.51805l0.00027,0.53105v0.34535l-0.00126,0.50299l-0.09325,0.51783l-0.09215,0.32362l-0.17267,0.51805l-0.07538,0.25311l0.00303,0.43146v0.4317l-0.00682,0.28039l0.00073,0.17076l0.29912,-0.15698l0.37131,-0.00238l0.39362,-0.03892l0.31609,-0.07979l0.45214,-0.13439l0.37494,-0.04009l0.42125,-0.16986l0.51611,-0.09525l0.41653,-0.04598l0.38714,0.00047l0.34796,0.054l0.62246,0.07783l0.49872,0.08413l0.42534,-0.00046l0.34536,0.04317l0.39782,0.00776l0.57124,0.27674l0.38871,0.15263l0.36278,0.34782l0.51851,0.49621l0.12513,0.5545l0.00026,0.47761l0.08634,0.47488l0.00126,0.65407v1.55412l-0.00079,0.60377l0.08436,0.58503l0.04534,0.36745l0.0006,0.36481v3.17301l-0.00023,0.63797l-0.04523,0.58697l-0.11874,0.6235l-0.54951,0.55718l-0.54674,0.17048l-0.39081,0.00332h-0.73389l-0.40412,-0.00039l-0.4317,-0.04317l-0.45435,-0.00195l-0.40704,-0.10038l-0.34475,-0.14745l-0.56158,-0.38348l-0.04063,-0.49957v-0.69073l0.00048,-0.50078l-0.04316,-0.3894l-0.00176,-0.64221l-0.00387,-0.61679l-0.03789,-0.62583l-0.00014,-0.63544l0.00061,-0.36885l-0.04936,-0.39083l-0.16005,-0.59881l-0.07806,-0.48737l-0.21528,-0.43183l-0.16966,-0.17579l-0.29323,-0.09052l-0.29558,-0.03602l-0.36908,0.0006l-0.59322,-0.0002l-0.58882,0.04223l-0.39962,0.03874l-0.23948,0.06737l-0.18167,0.08267l-0.06323,0.24394l-0.00746,0.45497l-0.03344,0.65223l-0.08544,0.42364l0.00226,0.37929l0.00315,0.62389l0.00932,0.61924l0.02911,0.61247l0.03172,0.32509l0.06059,0.62302l0.06055,0.6226l0.06379,0.65667l-0.05716,0.49195l-0.08758,0.68066l-0.31372,0.53292l-0.53828,0.1976l-0.41288,0.00298l-0.59774,0.1001l-0.64154,0.03637l-0.63362,0.03713l-0.59798,-0.00025l-0.4317,0.04316l-0.71177,-0.09127l-0.09166,-0.56667v-0.56121l0.00079,-0.36755l0.08783,-0.61991l0.04127,-0.40958l0.00009,-0.56293l0.04316,-0.38854l-0.00047,-0.60866l0.00023,-0.63797l0.04317,-0.56121l-0.00023,-0.59238v-1.18718l0.00025,-0.63862l0.0291,-0.36211l0.05059,-0.6239l0.04982,-0.61128l-0.00025,-0.44064v-0.62595l-0.00013,-1.06438l-0.00007,-0.62534l-0.0025,-0.62535l-0.00205,-0.61028l-0.06391,-0.60692l-0.06621,-0.6352l-0.01506,-0.63846l-0.01451,-0.6258l-0.01443,-0.62281l-0.02635,-0.62242l-0.02587,-0.61521l-0.06629,-0.61216l-0.06769,-0.62705l-0.04877,-0.6288l-0.04838,-0.62408l-0.04731,-0.61294l-0.09343,-0.6246l-0.01825,-0.42741l-0.01684,-0.41261c-0.07062,-0.0624 -0.14124,-0.17258 -0.07345,-0.34208c0.02209,-0.05519 0.05045,-0.09572 0.08193,-0.12514l0.02613,-0.34385c0,0 0.024,-0.31206 0.33607,-0.28805c0.31205,0.024 0.28805,0.33607 0.28805,0.33607z" fill="#00e4ff" stroke="none" stroke-width="0.5" stroke-linecap="butt"/><path d="M284.61485,77.95694c0.04899,-0.02798 0.11345,-0.04336 0.19813,-0.03278c0.31056,0.03882 0.27175,0.34938 0.27175,0.34938l-0.04271,0.34153l-0.04156,0.41167l0.00176,0.33013l0.00977,0.6175l0.03585,0.6198l0.03088,0.64292l-0.13262,0.8513l-0.56044,0.08562l-0.41226,-0.0006l-0.31467,0.03973l-0.40825,0.08161l-0.30773,0.08783l-0.6117,0.17391l-0.64531,0.13909l-0.90012,-0.0641l0.0082,-0.76322l0.0218,-0.34063l0.04228,-0.64171l0.10773,-0.60631l-0.00099,-0.39324l-0.03823,-0.55908l-0.12936,-0.43086l0.0076,-0.79726l0.46661,-0.20659l0.43089,-0.13945l0.48313,-0.00405l0.42341,0.00352l0.63846,0.00555l0.64945,0.05752l0.6298,0.11084c0,0 0.03992,0.00705 0.0885,0.03043z" fill="#00e4ff" stroke="none" stroke-width="0.5" stroke-linecap="butt"/><path d="M86.89465,56.94569l-0.2322,0.0409l-0.08247,0.01386l0.15132,0.0023zM85.48604,57.19926c-0.03288,-0.02661 -0.06363,-0.06406 -0.08957,-0.11592c-0.13997,-0.27994 0.13997,-0.41991 0.13997,-0.41991l0.35785,-0.17522l0.66092,-0.11831l0.56507,-0.09688l0.43821,-0.16202l0.67277,-0.04309l0.62658,-0.03122l0.63184,-0.03141l0.62877,-0.00457l0.62181,-0.01979l0.62564,-0.0199l0.46209,-0.01465l0.63093,-0.00004h2.89411l0.63242,0.00006l0.63188,0.02604l0.64943,0.02775l0.63786,0.12518l0.61407,0.12141l0.35731,0.07108l0.58245,0.05316l0.57597,0.14013l0.39216,0.37467l0.46987,0.53724l0.13717,0.5691l0.09025,0.63011l0.09443,0.61724l0.09575,0.62656l0.06432,0.63056l0.06262,0.61561l0.09092,0.61208l0.09376,0.63438l0.03227,0.64537l0.0115,0.63342l-0.00258,0.66537l-0.16916,0.5754l-0.30204,0.65148l-0.66195,-0.06649l-0.312,0.00108l-0.34627,0.05026l-0.39042,0.05499l-0.64814,0.00079l-0.58834,-0.00226l-0.58177,0.14508l-0.54672,0.08178l-0.3364,0.28177l-0.42538,0.01984l-0.57634,-0.00404l-0.61554,-0.20226l-0.59686,-0.08376l-0.65056,-0.17818l-0.13271,-0.78684l0.16931,-0.41676l0.09297,-0.41949l0.02883,-0.59889l0.02107,-0.4194l-0.0001,-0.61815v-1.89981l0.0322,-0.17746l-0.36111,-0.24294l-0.49927,-0.16078l-0.57786,0.00112l-0.33385,-0.0015l-0.37798,-0.00287l-0.56162,0.15898l-0.32766,0.09053l-0.51869,0.20784l-0.33587,0.11186l-0.34208,0.06983l-0.16755,0.22194l-0.13731,0.27918l-0.25458,0.56011l-0.22814,0.54252l-0.11505,0.61032l-0.22774,0.60093l-0.17164,0.56435l-0.07668,0.53202l0.15872,0.53983l0.13523,0.48544l0.25822,0.51481l0.33408,0.49324l0.16099,0.25127l0.43316,0.01401l0.59373,-0.0357l0.61453,-0.06706l0.50623,-0.05468l0.64293,-0.00047h1.25193l0.61011,0.00035l0.63797,0.06041l0.46706,0.04483l0.61111,-0.00035h0.42645l0.63704,0.0002l0.6338,0.04475l0.62317,0.03753l0.4019,0.02454l0.64539,0.09921l0.52088,0.1241l0.61642,0.25618l0.45484,0.53691l0.37102,0.45879l0.20491,0.60717l0.34535,0.51063l0.24773,0.61039l0.14554,0.3702l0.21518,0.27144l0.13925,0.41515l0.00404,0.6761l-0.00136,0.65509l-0.12009,0.64399l-0.09249,0.48918l-0.0511,0.46183l-0.05368,0.48204l-0.1042,0.62587l-0.10133,0.60684l-0.05922,0.61239l-0.05257,0.53297l-0.15444,0.62071l-0.11274,0.60604l-0.11649,0.62463l-0.15369,0.61653l-0.10894,0.42887l-0.29357,0.59132l-0.14357,0.28701l-0.30889,0.56583l-0.37076,0.55476l-0.55284,0.42968l-0.56497,0.3183l-0.28589,0.16024l-0.5834,0.26287l-0.48619,0.21874l-0.58346,0.24029l-0.34269,0.13969l-0.64027,0.13613l-0.36722,0.07662l-0.57062,0.20211l-0.59028,0.20833l-0.59512,0.21l-0.60168,0.19044l-0.4276,0.13524l-0.61069,0.16513l-0.60428,0.16331l-0.62263,0.16769l-0.63811,0.09271l-0.63181,0.09098l-0.63699,0.04129l-0.43785,0.02805l-0.63602,0.00016h-3.37317l-0.63704,-0.0002l-0.64388,-0.04557l-0.50903,-0.06407l-0.55088,-0.12928l-0.503,-0.37058l-0.42122,-0.48504l-0.27326,-0.64819l-0.14499,-0.63666l-0.14254,-0.63603l-0.03808,-0.65069l-0.02711,-0.47906l-0.00012,-0.63485v-0.62596l0.00039,-0.60537l0.0573,-0.56668l0.16447,-0.62014l0.12282,-0.60762l0.14072,-0.62302l0.15987,-0.55397l0.11024,-0.33046l0.20296,-0.50289l0.13531,-0.45525l0.56488,-0.14095h0.51796l0.37946,0.05361l0.63483,0.0459l0.54418,0.115l0.36153,0.0515l0.45843,0.11365l0.36748,0.72571l0.06385,0.35219l0.10189,0.40673l0.15287,0.56173l0.12319,0.34774l0.25488,0.24636l0.26155,0.20386l0.2202,-0.01493h0.5262l0.60875,0.00047l0.60501,-0.06731l0.32443,-0.03578l0.61302,-0.09202l0.42588,-0.06378l0.51146,-0.10229l0.41371,-0.10352l0.6168,-0.15403l0.56051,-0.09886l0.45755,-0.26914l0.40837,-0.4184l0.40767,-0.40831l0.24131,-0.48742l0.14386,-0.56579l0.08908,-0.34328l-0.25483,-0.38182l-0.44922,-0.35524l-0.27374,-0.2208l-0.51622,-0.31888l-0.53052,-0.32842l-0.54055,-0.32515l-0.48845,-0.3248l-0.50432,-0.2319l-0.41403,-0.05259l-0.57793,-0.19471l-0.40849,-0.00781l-0.46681,-0.00401l-0.4989,-0.16305l-0.31572,-0.05262l-0.44827,-0.15268l-0.57582,0.00405h-0.62596l-0.66057,-0.00191l-0.67381,-0.15136l-0.49594,-0.22531l-0.35401,-0.42413l-0.13681,-0.52443l-0.00228,-0.65797l-0.02473,-0.61924l-0.02509,-0.63102l-0.00142,-0.60395l-0.10935,-0.592l-0.1016,-0.64545l-0.00087,-0.59522l-0.03258,-0.61687l-0.02004,-0.38291l-0.00011,-0.53444l0.00015,-0.61626l-0.03872,-0.62262l-0.00875,-0.63347l-0.0053,-0.38818l-0.00001,-0.6281l0.00039,-0.35822l-0.05262,-0.5262l0.00008,-0.62435l-0.06732,-0.60502l-0.03792,-0.34762l0.01717,-0.48915l0.28451,-0.38081l0.52415,-0.42148l0.38068,-0.25859l0.56889,-0.28502z" fill="#00e4ff" stroke="none" stroke-width="0.5" stroke-linecap="butt"/><path d="" fill="#00e4ff" stroke="none" stroke-width="0.5" stroke-linecap="butt"/><path d="M175.75459,64.31195c0.00212,-0.12899 0.09833,-0.22519 0.09833,-0.22519l0.44116,-0.08535l0.37978,0.2977l0.034,0.52044l0.0902,0.30969l0.04868,0.52387l0.09409,0.52275l0.0002,0.32597l0.09126,0.54295l0.04694,0.60748l0.04506,0.3598l0.04983,0.34867l0.09088,0.64175l-0.00759,0.60275l-0.24116,0.4884l-0.51551,0.45475l-0.58849,0.16876l-0.49461,0.08895l-0.35323,0.1336l-0.44928,0.13397l-0.42034,0.20262l-0.65667,0.23011l-0.54149,-0.00379l-0.58814,-0.29313l-0.32215,-0.39841l-0.33481,-0.63267l-0.05792,-0.56739l-0.04735,-0.43031l-0.00048,-0.43348v-0.508l-0.00142,-0.38178l-0.04462,-0.62503l0.00283,-0.29143l-0.09248,-0.32368l-0.00046,-0.51207l-0.09207,-0.35779l0.10325,-0.83752l0.56728,-0.27825l0.67406,-0.12659l0.37408,-0.00133l0.56677,0.00565l0.46241,-0.18496l0.49942,-0.00485l0.32368,-0.04625l0.61532,0.00155z" fill="#000000" stroke="none" stroke-width="0.5" stroke-linecap="butt"/><path d="M156.57407,68.69115c0.00212,-0.10792 0.09832,-0.18843 0.09832,-0.18843l0.44117,-0.07141l0.37978,0.24909l0.034,0.43547l0.0902,0.25912l0.04869,0.43834l0.09409,0.4374l0.0002,0.27276l0.09126,0.4543l0.04694,0.5083l0.04505,0.30106l0.04983,0.29175l0.09087,0.53697l-0.00758,0.50434l-0.24116,0.40866l-0.51551,0.3805l-0.58849,0.14121l-0.49461,0.07443l-0.35323,0.1118l-0.44928,0.11209l-0.42033,0.16954l-0.65667,0.19254l-0.54149,-0.00317l-0.58814,-0.24527l-0.32216,-0.33337l-0.3348,-0.52938l-0.05793,-0.47475l-0.04734,-0.36006l-0.00048,-0.36271v-0.42507l-0.00143,-0.31945l-0.04462,-0.52298l0.00283,-0.24385l-0.09248,-0.27084l-0.00046,-0.42847l-0.09207,-0.29937l0.10325,-0.70079l0.56728,-0.23282l0.67406,-0.10591l0.37408,-0.00112l0.56677,0.00472l0.46241,-0.15476l0.49942,-0.00406l0.32369,-0.0387l0.61532,0.0013z" fill="#000000" stroke="none" stroke-width="0.5" stroke-linecap="butt"/></g></g></svg>